<svg width="89" height="89" viewBox="0 0 89 89" fill="none" xmlns="http://www.w3.org/2000/svg">
<g filter="url(#filter0_d_280_93)">
<circle cx="44.5247" cy="41.0009" r="36.5" transform="rotate(-178.55 44.5247 41.0009)" stroke="url(#paint0_linear_280_93)" stroke-width="7" shape-rendering="crispEdges"/>
</g>
<path d="M44.929 42.5894V24M44.929 24L38.3931 30.561M44.929 24L51.4648 30.561M53.6435 52.3521C52.014 52.1157 50.5045 51.3561 49.3407 50.187M32.9466 37.1219C29.6372 37.1219 27.5 39.8141 27.5 43.1362C27.5001 44.4514 27.9297 45.7303 28.723 46.7771C29.5162 47.8238 30.6294 48.5807 31.8921 48.9317C32.0864 51.3845 33.099 53.6998 34.7664 55.5034C36.4337 57.307 38.6583 58.4933 41.0804 58.8706C43.5026 59.248 45.9807 58.7942 48.1141 57.5828C50.2476 56.3714 51.9117 54.473 52.8374 52.1947C54.7863 52.737 56.87 52.4799 58.6302 51.48C60.3903 50.4801 61.6826 48.8192 62.2229 46.8628C62.7631 44.9064 62.507 42.8146 61.5109 41.0478C60.5148 39.2809 58.8603 37.9836 56.9114 37.4412" stroke="white" stroke-width="2" stroke-linecap="round" stroke-linejoin="round"/>
<defs>
<filter id="filter0_d_280_93" x="0.524414" y="1.00073" width="88.001" height="88.0005" filterUnits="userSpaceOnUse" color-interpolation-filters="sRGB">
<feFlood flood-opacity="0" result="BackgroundImageFix"/>
<feColorMatrix in="SourceAlpha" type="matrix" values="0 0 0 0 0 0 0 0 0 0 0 0 0 0 0 0 0 0 127 0" result="hardAlpha"/>
<feOffset dy="4"/>
<feGaussianBlur stdDeviation="2"/>
<feComposite in2="hardAlpha" operator="out"/>
<feColorMatrix type="matrix" values="0 0 0 0 0 0 0 0 0 0 0 0 0 0 0 0 0 0 0.25 0"/>
<feBlend mode="normal" in2="BackgroundImageFix" result="effect1_dropShadow_280_93"/>
<feBlend mode="normal" in="SourceGraphic" in2="effect1_dropShadow_280_93" result="shape"/>
</filter>
<linearGradient id="paint0_linear_280_93" x1="44.5247" y1="12.7152" x2="44.5247" y2="83.858" gradientUnits="userSpaceOnUse">
<stop stop-color="#B70AC1"/>
<stop offset="0.479448" stop-color="#B70AC1"/>
<stop offset="0.9375" stop-color="#292F43"/>
</linearGradient>
</defs>
</svg>
