<svg width="89" height="89" viewBox="0 0 89 89" fill="none" xmlns="http://www.w3.org/2000/svg">
<g filter="url(#filter0_d_273_1347)">
<circle cx="44.0247" cy="41.0009" r="36.5" transform="rotate(-178.55 44.0247 41.0009)" stroke="url(#paint0_linear_273_1347)" stroke-width="7" shape-rendering="crispEdges"/>
</g>
<path d="M44.1157 24.5C44.3619 24.5 44.6078 24.5385 44.8452 24.6152L45.0796 24.7051L45.0854 24.707L46.6021 25.3691C53.3445 28.3113 57.7036 34.9687 57.7036 42.3252V43.7695C57.7035 45.1347 57.0814 46.6189 55.9243 48.1729C54.9192 49.5226 53.5804 50.8293 52.1265 52.0303L51.4976 52.5381C47.2966 55.8523 41.4508 55.9564 37.147 52.8496L36.7349 52.5381C35.0407 51.2015 33.4567 49.7153 32.3081 48.1729C31.1509 46.6189 30.5289 45.1347 30.5288 43.7695V42.3252C30.5288 35.1984 34.6195 28.7274 41.0054 25.6553L41.6304 25.3691L43.147 24.707L43.1528 24.7051C43.4608 24.5692 43.7877 24.5 44.1157 24.5Z" stroke="white" stroke-width="3" stroke-linecap="round" stroke-linejoin="round"/>
<path d="M42.6221 36.6841C42.7184 38.2299 44.0022 39.4535 45.5723 39.4536H46.3965C46.8448 39.4536 47.1534 39.8878 47.0283 40.3013L46.9971 40.3833L45.7314 43.1919C45.6344 41.6466 44.351 40.4233 42.7812 40.4233H41.957C41.5086 40.4233 41.1999 39.9892 41.3252 39.5757L41.3564 39.4937L42.6221 36.6841Z" stroke="white" stroke-width="3" stroke-linecap="round" stroke-linejoin="round"/>
<defs>
<filter id="filter0_d_273_1347" x="0.0244141" y="1.00049" width="88.0005" height="88.0005" filterUnits="userSpaceOnUse" color-interpolation-filters="sRGB">
<feFlood flood-opacity="0" result="BackgroundImageFix"/>
<feColorMatrix in="SourceAlpha" type="matrix" values="0 0 0 0 0 0 0 0 0 0 0 0 0 0 0 0 0 0 127 0" result="hardAlpha"/>
<feOffset dy="4"/>
<feGaussianBlur stdDeviation="2"/>
<feComposite in2="hardAlpha" operator="out"/>
<feColorMatrix type="matrix" values="0 0 0 0 0 0 0 0 0 0 0 0 0 0 0 0 0 0 0.25 0"/>
<feBlend mode="normal" in2="BackgroundImageFix" result="effect1_dropShadow_273_1347"/>
<feBlend mode="normal" in="SourceGraphic" in2="effect1_dropShadow_273_1347" result="shape"/>
</filter>
<linearGradient id="paint0_linear_273_1347" x1="44.0247" y1="12.7152" x2="44.0247" y2="83.858" gradientUnits="userSpaceOnUse">
<stop stop-color="#B70AC1"/>
<stop offset="0.479448" stop-color="#B70AC1"/>
<stop offset="0.9375" stop-color="#292F43"/>
</linearGradient>
</defs>
</svg>
