<svg width="45" height="45" viewBox="0 0 45 45" fill="none" xmlns="http://www.w3.org/2000/svg">
<circle cx="22.5" cy="22.5" r="22.5" fill="#B70AC1"/>
<path d="M15.3571 16.8966C14.6508 16.8966 13.9603 16.6943 13.373 16.3154C12.7856 15.9365 12.3279 15.398 12.0576 14.7679C11.7873 14.1378 11.7165 13.4445 11.8543 12.7756C11.9921 12.1067 12.3323 11.4922 12.8318 11.01C13.3312 10.5277 13.9676 10.1993 14.6604 10.0663C15.3532 9.93321 16.0713 10.0015 16.7239 10.2625C17.3765 10.5235 17.9342 10.9655 18.3267 11.5325C18.7191 12.0996 18.9286 12.7663 18.9286 13.4483C18.9286 14.3628 18.5523 15.2399 17.8825 15.8866C17.2128 16.5333 16.3043 16.8966 15.3571 16.8966ZM15.3571 11.7241C15.004 11.7241 14.6587 11.8253 14.3651 12.0147C14.0714 12.2042 13.8425 12.4734 13.7074 12.7885C13.5722 13.1035 13.5368 13.4502 13.6057 13.7846C13.6746 14.1191 13.8447 14.4263 14.0945 14.6674C14.3442 14.9086 14.6624 15.0728 15.0088 15.1393C15.3552 15.2058 15.7142 15.1717 16.0405 15.0412C16.3668 14.9107 16.6457 14.6897 16.8419 14.4062C17.0381 14.1226 17.1429 13.7893 17.1429 13.4483C17.1429 12.991 16.9547 12.5525 16.6198 12.2291C16.2849 11.9058 15.8307 11.7241 15.3571 11.7241ZM29.6429 16.8966C28.9365 16.8966 28.246 16.6943 27.6587 16.3154C27.0714 15.9365 26.6136 15.398 26.3433 14.7679C26.073 14.1378 26.0022 13.4445 26.1401 12.7756C26.2779 12.1067 26.618 11.4922 27.1175 11.01C27.6169 10.5277 28.2533 10.1993 28.9461 10.0663C29.6389 9.93321 30.357 10.0015 31.0096 10.2625C31.6622 10.5235 32.22 10.9655 32.6124 11.5325C33.0048 12.0996 33.2143 12.7663 33.2143 13.4483C33.2143 14.3628 32.838 15.2399 32.1682 15.8866C31.4985 16.5333 30.5901 16.8966 29.6429 16.8966ZM29.6429 11.7241C29.2897 11.7241 28.9444 11.8253 28.6508 12.0147C28.3571 12.2042 28.1282 12.4734 27.9931 12.7885C27.8579 13.1035 27.8226 13.4502 27.8915 13.7846C27.9604 14.1191 28.1304 14.4263 28.3802 14.6674C28.6299 14.9086 28.9481 15.0728 29.2945 15.1393C29.6409 15.2058 29.9999 15.1717 30.3262 15.0412C30.6525 14.9107 30.9314 14.6897 31.1276 14.4062C31.3238 14.1226 31.4286 13.7893 31.4286 13.4483C31.4286 12.991 31.2404 12.5525 30.9055 12.2291C30.5707 11.9058 30.1165 11.7241 29.6429 11.7241ZM31.4286 35H27.8571C27.3835 35 26.9293 34.8183 26.5945 34.495C26.2596 34.1717 26.0714 33.7331 26.0714 33.2759V27.2414H27.8571V33.2759H31.4286V25.5172H33.2143V20.3448C33.2143 20.1162 33.1202 19.8969 32.9528 19.7353C32.7853 19.5736 32.5582 19.4828 32.3214 19.4828H26.5893L22.5 26.3793L18.4107 19.4828H12.6786C12.4418 19.4828 12.2147 19.5736 12.0472 19.7353C11.8798 19.8969 11.7857 20.1162 11.7857 20.3448V25.5172H13.5714V33.2759H17.1429V27.2414H18.9286V33.2759C18.9286 33.7331 18.7404 34.1717 18.4055 34.495C18.0707 34.8183 17.6165 35 17.1429 35H13.5714C13.0978 35 12.6436 34.8183 12.3087 34.495C11.9739 34.1717 11.7857 33.7331 11.7857 33.2759V27.2414C11.3121 27.2414 10.8579 27.0597 10.523 26.7364C10.1881 26.4131 10 25.9745 10 25.5172V20.3448C10 19.6589 10.2822 19.0011 10.7845 18.5161C11.2869 18.0311 11.9682 17.7586 12.6786 17.7586H19.4464L22.5 22.931L25.5536 17.7586H32.3214C33.0318 17.7586 33.7131 18.0311 34.2155 18.5161C34.7178 19.0011 35 19.6589 35 20.3448V25.5172C35 25.9745 34.8119 26.4131 34.477 26.7364C34.1421 27.0597 33.6879 27.2414 33.2143 27.2414V33.2759C33.2143 33.7331 33.0261 34.1717 32.6913 34.495C32.3564 34.8183 31.9022 35 31.4286 35Z" fill="white"/>
</svg>
