<svg width="36" height="37" viewBox="0 0 36 37" fill="none" xmlns="http://www.w3.org/2000/svg">
<rect x="0.689453" y="0.961548" width="35.3011" height="35.3011" rx="17.6506" fill="#B70AC1"/>
<g clip-path="url(#clip0_399_2245)">
<path d="M18.0508 10.4894V26.6691" stroke="white" stroke-width="1.47088" stroke-linecap="round" stroke-linejoin="round"/>
<path d="M21.7285 13.4325H16.2127C15.53 13.4325 14.8753 13.7037 14.3926 14.1864C13.9099 14.6691 13.6387 15.3239 13.6387 16.0065C13.6387 16.6892 13.9099 17.3439 14.3926 17.8267C14.8753 18.3094 15.53 18.5806 16.2127 18.5806H19.8899C20.5726 18.5806 21.2273 18.8518 21.71 19.3345C22.1928 19.8172 22.464 20.4719 22.464 21.1546C22.464 21.8373 22.1928 22.492 21.71 22.9747C21.2273 23.4575 20.5726 23.7287 19.8899 23.7287H13.6387" stroke="white" stroke-width="1.47088" stroke-linecap="round" stroke-linejoin="round"/>
</g>
<defs>
<clipPath id="clip0_399_2245">
<rect width="17.6506" height="17.6506" fill="white" transform="translate(9.22656 9.75452)"/>
</clipPath>
</defs>
</svg>
