<svg width="89" height="89" viewBox="0 0 89 89" fill="none" xmlns="http://www.w3.org/2000/svg">
<g filter="url(#filter0_d_273_1338)">
<circle cx="44.0247" cy="41.0009" r="36.5" transform="rotate(-178.55 44.0247 41.0009)" stroke="url(#paint0_linear_273_1338)" stroke-width="7" shape-rendering="crispEdges"/>
</g>
<path d="M49.999 49.332C50.6727 49.332 51.2284 49.8604 51.2617 50.5332L51.4863 55.1143V55.3252C51.4285 56.3646 50.5661 57.2002 49.501 57.2002C49.1453 57.2002 48.7971 57.1044 48.4922 56.9248L48.3643 56.8428L47.3135 56.1104C45.431 54.7984 42.9499 54.7545 41.0273 55.9805L40.8438 56.1035L39.7744 56.8447C39.4414 57.0757 39.045 57.2002 38.6396 57.2002C37.5029 57.2 36.5977 56.2487 36.6533 55.1133L36.8779 50.5332L36.8906 50.4092C36.9814 49.7966 37.5089 49.332 38.1406 49.332C38.8179 49.3322 39.3659 49.8634 39.4023 50.5244V50.6582L39.374 51.248C39.3162 52.4296 40.6392 53.1636 41.6113 52.4893L42.6836 51.7451L42.8447 51.6426C43.664 51.1637 44.6945 51.1989 45.4824 51.748L46.5322 52.4805L46.624 52.5391C47.5518 53.0908 48.7428 52.4317 48.7676 51.3525L48.7656 51.2432L48.7373 50.6582C48.7018 49.9368 49.2767 49.3321 49.999 49.332ZM42.2305 25.7393C43.4844 25.1815 44.9305 25.2213 46.1572 25.8584L46.3584 25.9561C46.8342 26.1713 47.3471 26.2953 47.8701 26.3193L48.1445 26.3398C49.5084 26.4861 50.7406 27.2471 51.4834 28.4111L51.6094 28.5967C51.9143 29.0219 52.2982 29.3868 52.7393 29.6699L52.9658 29.8262C54.0739 30.6364 54.7613 31.9116 54.8242 33.292L54.8408 33.5166C54.8929 34.0379 55.0434 34.5465 55.2842 35.0127L55.4033 35.2617C55.9221 36.4352 55.9222 37.7748 55.4033 38.9482L55.2842 39.1973C55.0434 39.6635 54.8929 40.172 54.8408 40.6934L54.8242 40.917C54.7613 42.2975 54.0741 43.5737 52.9658 44.3838L52.7393 44.5391C52.2982 44.822 51.9143 45.1872 51.6094 45.6123L51.4834 45.7988C50.7407 46.9628 49.5083 47.7231 48.1445 47.8691L47.8701 47.8906C47.3471 47.9146 46.8342 48.0377 46.3584 48.2529L46.1562 48.3506C44.9297 48.9877 43.4843 49.0274 42.2305 48.4697L41.9824 48.3506C41.5177 48.1092 41.0119 47.9584 40.4922 47.9062L40.2686 47.8906C38.8888 47.8273 37.6168 47.1348 36.8105 46.0254L36.6562 45.7988C36.3743 45.3569 36.0102 44.9711 35.5859 44.665L35.4004 44.5391C34.2373 43.7924 33.4812 42.5562 33.3359 41.1914L33.3154 40.917C33.2915 40.3928 33.1678 39.8771 32.9531 39.3994L32.8555 39.1973C32.1777 37.8851 32.1777 36.3249 32.8555 35.0127L32.9531 34.8105C33.168 34.3327 33.2906 33.8164 33.3145 33.292L33.3359 33.0176C33.4812 31.6527 34.2371 30.4165 35.4004 29.6699L35.5859 29.5439C36.0102 29.2379 36.3742 28.853 36.6562 28.4111L36.8105 28.1836C37.617 27.0743 38.8898 26.3827 40.2695 26.3193L40.4932 26.3027C41.0126 26.2505 41.518 26.0997 41.9824 25.8584L42.2305 25.7393ZM45.5762 28.4111C44.6907 27.9512 43.6474 27.9226 42.7422 28.3252L42.5635 28.4111C42.1506 28.6256 41.701 28.7592 41.2393 28.8057L41.04 28.8203C40.0446 28.866 39.1263 29.3653 38.5439 30.166L38.4316 30.3311C38.1813 30.7233 37.8582 31.0651 37.4814 31.3369L37.3164 31.4492C36.4767 31.9881 35.9303 32.8813 35.8252 33.8672L35.8096 34.0654C35.7883 34.5311 35.6792 34.9896 35.4883 35.4141L35.4014 35.5938C34.9118 36.5415 34.9126 37.6685 35.4023 38.6162L35.4883 38.7959C35.6791 39.2202 35.7893 39.678 35.8105 40.1436L35.8252 40.3428C35.9302 41.3285 36.4768 42.2208 37.3164 42.7598L37.4814 42.8721C37.8584 43.144 38.1812 43.4864 38.4316 43.8789L38.5439 44.043C39.1263 44.8439 40.0445 45.344 41.04 45.3896L41.2393 45.4033C41.701 45.4498 42.1506 45.5843 42.5635 45.7988L42.7422 45.8848C43.6472 46.2872 44.6909 46.2587 45.5762 45.7988L45.7549 45.7109C46.1777 45.5196 46.6339 45.411 47.0986 45.3896L47.2969 45.374C48.2812 45.2686 49.1717 44.7195 49.708 43.8789L49.8193 43.7139C50.0902 43.3361 50.4312 43.0113 50.8232 42.7598L50.9873 42.6475C51.7872 42.0624 52.2846 41.1407 52.3301 40.1436L52.3438 39.9453C52.39 39.4823 52.5233 39.0305 52.7373 38.6162L52.8242 38.4365C53.1991 37.5887 53.1983 36.6211 52.8232 35.7734L52.7373 35.5938C52.5232 35.1795 52.39 34.7276 52.3438 34.2646L52.3291 34.0654C52.2837 33.0682 51.7873 32.1466 50.9873 31.5615L50.8232 31.4492C50.4314 31.1977 50.0901 30.8737 49.8193 30.4961L49.708 30.3311C49.1717 29.4906 48.282 28.9405 47.2979 28.835L47.0996 28.8203C46.6348 28.799 46.1787 28.6893 45.7559 28.498L45.5762 28.4111Z" fill="white" stroke="white" stroke-width="0.4"/>
<defs>
<filter id="filter0_d_273_1338" x="0.0244141" y="1.00049" width="88.0005" height="88.0005" filterUnits="userSpaceOnUse" color-interpolation-filters="sRGB">
<feFlood flood-opacity="0" result="BackgroundImageFix"/>
<feColorMatrix in="SourceAlpha" type="matrix" values="0 0 0 0 0 0 0 0 0 0 0 0 0 0 0 0 0 0 127 0" result="hardAlpha"/>
<feOffset dy="4"/>
<feGaussianBlur stdDeviation="2"/>
<feComposite in2="hardAlpha" operator="out"/>
<feColorMatrix type="matrix" values="0 0 0 0 0 0 0 0 0 0 0 0 0 0 0 0 0 0 0.25 0"/>
<feBlend mode="normal" in2="BackgroundImageFix" result="effect1_dropShadow_273_1338"/>
<feBlend mode="normal" in="SourceGraphic" in2="effect1_dropShadow_273_1338" result="shape"/>
</filter>
<linearGradient id="paint0_linear_273_1338" x1="44.0247" y1="12.7152" x2="44.0247" y2="83.858" gradientUnits="userSpaceOnUse">
<stop stop-color="#B70AC1"/>
<stop offset="0.479448" stop-color="#B70AC1"/>
<stop offset="0.9375" stop-color="#292F43"/>
</linearGradient>
</defs>
</svg>
