<svg width="133" height="101" viewBox="0 0 133 101" fill="none" xmlns="http://www.w3.org/2000/svg">
<g clip-path="url(#clip0_398_282)">
<path d="M82.5854 14.8893C88.2389 20.9714 93.8759 27.07 99.5295 33.1521C99.2493 33.1685 98.9855 33.2015 98.7053 33.185C81.2832 32.7894 81.2997 32.7894 81.3492 50.1291C81.3821 63.1339 81.3492 76.1387 81.3492 88.9951C87.3488 88.9951 92.3925 88.9951 99.513 88.9951C99.513 70.0566 99.513 51.5961 99.513 33.1191C103.255 36.564 107.161 39.8605 110.705 43.4866C113.886 46.7337 116.671 50.3599 119.638 53.8048C118.501 55.041 117.364 56.2607 116.226 57.4969C118.204 57.9913 120.166 58.4693 121.319 58.7495C121.319 62.0625 121.319 65.1118 121.319 68.1776C109.221 85.4843 94.5188 98.0935 71.6574 97.5002C65.1962 97.3353 58.6856 99.066 52.2079 99.9725C41.4118 101.472 31.6706 100.187 25.2094 89.9841C30.0058 89.6709 34.8022 89.3578 39.8624 89.0446C39.8624 79.1056 39.8624 69.7105 39.8624 60.3648C37.1593 60.3648 34.9506 60.7604 32.9562 60.2989C25.094 58.4364 23.4292 62.3922 23.7424 69.1501C24.0556 75.9574 23.7754 82.7812 23.7589 89.5885C10.5893 86.0942 2.46336 61.3373 5.8423 47.7392C9.56737 46.3546 13.5397 45.3821 17.001 43.5031C34.8847 33.7454 52.62 23.724 70.4706 13.9004C71.9541 13.0927 73.7836 12.9279 76.7505 12.1202C74.9209 16.109 73.899 18.3342 72.8771 20.5758C73.2562 20.889 73.6353 21.1857 74.0144 21.4988C76.8494 19.2902 79.7174 17.0815 82.5854 14.8893ZM69.3333 45.4316C62.2952 45.4316 57.0538 45.4316 50.5596 45.4316C50.5596 56.92 50.3783 67.7655 50.6091 78.6111C50.8398 89.0281 54.9605 92.0115 65.394 89.3578C66.9598 88.9622 69.1355 86.6711 69.1685 85.2206C69.4652 72.0181 69.3333 58.799 69.3333 45.4316Z" fill="#292F43"/>
<path d="M82.5868 14.8893C79.7188 17.098 76.8508 19.2901 73.9993 21.4988C73.6202 21.1856 73.2411 20.889 72.862 20.5758C73.884 18.3342 74.9224 16.0925 76.7355 12.1202C73.7686 12.9279 71.939 13.0927 70.4556 13.9003C52.6214 23.724 34.8861 33.7454 17.0025 43.5031C13.5411 45.3821 9.5853 46.3546 5.84375 47.7391C6.1734 46.6842 6.50305 45.6294 6.83271 44.5745C7.60739 44.5415 8.53042 44.7723 9.12379 44.4426C26.3976 34.586 43.6549 24.68 60.9122 14.7739C64.1757 12.8949 67.4228 10.9664 70.6863 9.07092C70.4391 8.527 70.1754 7.99955 69.9281 7.45563C67.9008 7.65342 65.8569 7.86769 63.8296 8.06548C63.9285 6.59853 63.7472 3.96131 64.1922 3.84593C69.6644 2.4614 75.1861 1.07686 80.7902 0.53293C83.345 0.285691 86.0976 1.91747 88.7513 2.69215C87.7953 5.57661 87.0206 8.54348 85.7844 11.2961C85.1581 12.6806 83.6746 13.7025 82.5868 14.8893ZM72.3016 8.59293C72.8126 8.39514 73.3071 8.19734 73.8016 7.99955C73.5378 7.6699 73.2906 7.12597 72.9939 7.09301C72.5654 7.04356 72.0874 7.35673 71.6258 7.52156C71.8401 7.86769 72.0709 8.21383 72.3016 8.59293Z" fill="#B70AC1"/>
<path d="M63.8133 8.06542C65.8406 7.86763 67.8845 7.65336 69.9118 7.45557C70.1591 7.99949 70.4228 8.52694 70.67 9.07086C67.4065 10.9664 64.1759 12.8948 60.8959 14.7738C43.6386 24.6799 26.3977 34.5859 9.10749 44.4425C8.51412 44.7887 7.59109 44.5414 6.81641 44.5744C9.61845 33.3333 17.9916 26.4106 27.4362 21.8284C39.0564 16.1749 51.6491 12.5487 63.8133 8.06542Z" fill="#292F43"/>
<path d="M23.792 89.5885C23.8085 82.7647 24.0887 75.9409 23.7756 69.1501C23.4624 62.3757 25.1271 58.4364 32.9893 60.2989C34.9837 60.7769 37.1924 60.3649 39.8955 60.3649C39.8955 69.7105 39.8955 79.1056 39.8955 89.0446C34.8354 89.3743 30.0389 89.6874 25.2425 89.9841C24.6821 90.0665 24.2041 89.9347 23.792 89.5885ZM29.1654 64.1723C29.1654 72.1499 29.1654 79.6495 29.1654 87.6601C32.0169 87.3799 34.275 87.1656 36.5331 86.9513C36.5331 78.6935 36.5331 71.1115 36.5331 63.101C33.764 63.4966 31.44 63.8427 29.1654 64.1723Z" fill="#B70AC1"/>
<path d="M9.71654 19.3066C9.71654 17.7737 9.71654 16.0431 9.71654 14.0322C7.09581 13.6531 4.65638 13.3234 0.75 12.763C6.20574 9.20277 10.3594 6.48314 14.1504 3.99426C16.7546 5.67549 19.9358 7.73582 22.4576 9.36759C18.8809 12.1532 14.5789 15.5156 9.71654 19.3066Z" fill="#B70AC1"/>
<path d="M121.32 68.1941C121.32 65.1283 121.32 62.079 121.32 58.766C120.166 58.4858 118.204 57.9913 116.227 57.5133C117.364 56.2772 118.501 55.0574 119.638 53.8212C122.638 51.6785 125.638 49.5358 128.325 47.6238C129.561 49.4039 131.275 51.8763 132.248 53.2773C129.94 56.8376 127.748 60.4143 125.341 63.8427C124.204 65.458 122.671 66.7601 121.32 68.1941Z" fill="#B70AC1"/>
<path d="M122.457 16.1585C118.946 14.9882 115.534 13.8509 112.287 12.7631C115.056 9.28524 118.287 5.247 121.6 1.09338C123.792 2.93944 126.759 5.44479 129.61 7.85125C127.517 10.2742 124.748 13.5048 122.457 16.1585Z" fill="#B70AC1"/>
<path d="M69.3336 45.4315C69.3336 58.7989 69.449 72.0015 69.1688 85.2041C69.1358 86.6545 66.9601 88.9456 65.3943 89.3412C54.9608 91.9949 50.8401 89.0115 50.6093 78.5945C50.3786 67.749 50.5599 56.9034 50.5599 45.415C57.054 45.4315 62.2955 45.4315 69.3336 45.4315ZM55.3399 48.8599C55.3399 62.0295 55.3399 74.4244 55.3399 86.9842C58.6364 86.9842 61.4549 86.9842 64.5536 86.9842C64.5536 74.408 64.5536 62.2768 64.5536 49.5522C61.4219 49.3214 58.6364 49.1071 55.3399 48.8599Z" fill="#B70AC1"/>
<path d="M99.5143 33.1355C99.5143 51.596 99.5143 70.073 99.5143 89.0116C92.3938 89.0116 87.3336 89.0116 81.3504 89.0116C81.3504 76.1386 81.3669 63.1339 81.3504 50.1456C81.3175 32.7894 81.301 32.7894 98.7066 33.2014C98.9703 33.185 99.2505 33.152 99.5143 33.1355ZM94.0091 87.182C94.0091 70.6005 94.0091 54.3321 94.0091 37.866C90.8279 37.7012 88.1742 37.5693 85.3887 37.421C85.3887 53.953 85.3887 70.4192 85.3887 87.1655C88.4544 87.182 91.0917 87.182 94.0091 87.182Z" fill="#B70AC1"/>
<path d="M72.3016 8.59292C72.0709 8.2303 71.8401 7.86768 71.6094 7.52155C72.0709 7.35672 72.5489 7.04355 72.9774 7.093C73.2741 7.12597 73.5214 7.68637 73.7851 7.99954C73.3071 8.18085 72.8126 8.37864 72.3016 8.59292Z" fill="#292F43"/>
<path d="M29.166 64.1723C31.4406 63.8427 33.7647 63.4965 36.5337 63.101C36.5337 71.1115 36.5337 78.6935 36.5337 86.9513C34.2756 87.1656 32.034 87.3798 29.166 87.66C29.166 79.633 29.166 72.1334 29.166 64.1723Z" fill="#292F43"/>
<path d="M55.3398 48.86C58.6528 49.1072 61.4384 49.3215 64.5536 49.5687C64.5536 62.2933 64.5536 74.4245 64.5536 87.0007C61.4549 87.0007 58.6364 87.0007 55.3398 87.0007C55.3398 74.408 55.3398 62.0296 55.3398 48.86Z" fill="#292F43"/>
<path d="M94.0091 87.182C91.0917 87.182 88.4544 87.182 85.3887 87.182C85.3887 70.4357 85.3887 53.9696 85.3887 37.4375C88.1742 37.5858 90.8279 37.7177 94.0091 37.8825C94.0091 54.3322 94.0091 70.6005 94.0091 87.182Z" fill="#292F43"/>
</g>
<defs>
<clipPath id="clip0_398_282">
<rect width="131.498" height="100" fill="white" transform="translate(0.75 0.5)"/>
</clipPath>
</defs>
</svg>
