<svg width="50" height="50" viewBox="0 0 50 50" fill="none" xmlns="http://www.w3.org/2000/svg">
<circle cx="25" cy="25" r="25" fill="white"/>
<path d="M33.7256 13.9785C34.0785 14.2456 34.3112 14.6421 34.3722 15.0804L36.1866 28.2014L36.1858 28.2008C36.2213 28.4166 36.2152 28.6374 36.1655 28.8505L36.1195 29.0116C36.0653 29.1703 35.9866 29.3198 35.8874 29.4557L35.7821 29.5867C35.6702 29.7115 35.5398 29.8187 35.3953 29.9051C35.2508 29.9915 35.0946 30.0559 34.9316 30.0954L34.7672 30.1265C34.545 30.1572 34.3185 30.1432 34.1019 30.0846C33.9397 30.0407 33.7853 29.972 33.6439 29.8824L33.5064 29.7857C33.3741 29.6818 33.2583 29.5584 33.1631 29.4204L33.0751 29.2779C32.9696 29.0864 32.9032 28.8759 32.8786 28.6588L32.8781 28.6596L31.6161 19.5333L18.975 36.2314C18.741 36.5404 18.4082 36.7573 18.0347 36.8473L17.8717 36.8783C17.4329 36.9388 16.9874 36.8225 16.6343 36.5551C16.3252 36.3211 16.1089 35.9877 16.0189 35.6141L15.9882 35.4524C15.9275 35.0135 16.044 34.5682 16.3114 34.215L28.9524 17.5169L19.8262 18.7788L19.826 18.7775C19.6105 18.8127 19.3904 18.8065 19.1776 18.757C19.0136 18.7188 18.8568 18.6559 18.7121 18.5711L18.5718 18.4797C18.4358 18.3804 18.3157 18.2613 18.2156 18.1267L18.1225 17.9876C18.0361 17.8432 17.9731 17.6865 17.9336 17.5237L17.9017 17.3587C17.871 17.1365 17.8858 16.9105 17.9443 16.694C18.0029 16.4774 18.1039 16.2743 18.2425 16.0979L18.3526 15.9718C18.4689 15.8509 18.6028 15.7478 18.7503 15.6666C18.9418 15.561 19.1522 15.4946 19.3693 15.4701L32.4889 13.6559L32.4895 13.6552L32.6542 13.6414C33.0379 13.6269 33.4168 13.7448 33.7256 13.9785Z" fill="#B70AC1" stroke="#B70AC1"/>
</svg>
