<svg width="45" height="45" viewBox="0 0 45 45" fill="none" xmlns="http://www.w3.org/2000/svg">
<circle cx="22.5" cy="22.5" r="22.5" fill="#B70AC1"/>
<path d="M27.1418 23.3867C28.3733 22.423 29.2722 21.1016 29.7135 19.6063C30.1547 18.1109 30.1163 16.5159 29.6036 15.0433C29.0909 13.5706 28.1294 12.2935 26.8529 11.3896C25.5764 10.4857 24.0484 10 22.4814 10C20.9144 10 19.3863 10.4857 18.1098 11.3896C16.8333 12.2935 15.8718 13.5706 15.3591 15.0433C14.8465 16.5159 14.8081 18.1109 15.2493 19.6063C15.6905 21.1016 16.5894 22.423 17.821 23.3867C15.7107 24.2275 13.8694 25.622 12.4934 27.4217C11.1174 29.2214 10.2583 31.3587 10.0076 33.6058C9.98943 33.7698 10.004 33.9358 10.0503 34.0943C10.0967 34.2528 10.174 34.4006 10.2778 34.5294C10.4875 34.7894 10.7924 34.956 11.1256 34.9925C11.4587 35.0289 11.7928 34.9322 12.0543 34.7237C12.3158 34.5152 12.4833 34.2119 12.5199 33.8806C12.7958 31.4385 13.9666 29.1831 15.8089 27.5452C17.6511 25.9074 20.0355 25.002 22.5065 25.002C24.9775 25.002 27.3619 25.9074 29.2041 27.5452C31.0463 29.1831 32.2172 31.4385 32.4931 33.8806C32.5272 34.1876 32.6745 34.4711 32.9065 34.6764C33.1385 34.8817 33.4387 34.9943 33.7492 34.9925H33.8874C34.2167 34.9548 34.5177 34.7892 34.7247 34.5318C34.9318 34.2744 35.0282 33.946 34.9928 33.6182C34.741 31.3648 33.8772 29.222 32.4941 27.4196C31.1111 25.6171 29.2608 24.223 27.1418 23.3867ZM22.4814 22.4997C21.4876 22.4997 20.5161 22.2066 19.6898 21.6575C18.8635 21.1084 18.2195 20.328 17.8392 19.4149C17.4589 18.5018 17.3593 17.497 17.5532 16.5277C17.7471 15.5583 18.2257 14.6679 18.9284 13.969C19.6311 13.2702 20.5264 12.7943 21.5011 12.6014C22.4758 12.4086 23.4861 12.5076 24.4042 12.8858C25.3224 13.264 26.1071 13.9045 26.6592 14.7263C27.2114 15.5481 27.5061 16.5142 27.5061 17.5025C27.5061 18.8279 26.9767 20.0989 26.0344 21.036C25.092 21.9732 23.814 22.4997 22.4814 22.4997Z" fill="white"/>
</svg>
