<svg width="204" height="206" viewBox="0 0 204 206" fill="none" xmlns="http://www.w3.org/2000/svg">
<g filter="url(#filter0_d_2015_66)">
<circle cx="102" cy="100" r="100" fill="url(#paint0_linear_2015_66)"/>
</g>
<path d="M93.2822 79.3125C93.9113 78.8361 94.9495 79.0381 95.2472 79.807C95.4776 80.7545 95.1281 81.715 94.7242 82.5615C93.5773 84.9019 91.8661 86.9315 89.9089 88.635C89.4248 89.0777 88.8604 89.422 88.2624 89.6861C88.3426 87.6047 89.0572 85.5983 89.9426 83.7317C90.7658 82.0774 91.7185 80.3765 93.2822 79.3125Z" fill="#3A73B8"/>
<path d="M113.519 80.1254C114.076 79.4833 115.034 78.8413 115.883 79.2788C116.815 79.8303 116.328 81.0651 115.961 81.8211C114.68 84.1847 112.779 86.1782 110.718 87.8791C110.688 85.0753 111.691 82.2534 113.519 80.1254Z" fill="#3A73B8"/>
<path d="M93.7689 102.219C90.9004 103.544 88.221 105.289 85.8055 107.322C84.0088 108.934 82.2562 110.814 81.6038 113.198C81.2905 114.477 81.218 116.093 82.2924 117.045C83.4263 118.081 85.135 117.773 86.445 117.281C88.9717 116.308 90.4966 113.861 91.5244 111.484C92.723 108.533 93.466 105.39 93.7689 102.219Z" fill="#3A73B8"/>
<path fill-rule="evenodd" clip-rule="evenodd" d="M90.7684 62.3006C97.8878 60.3124 105.592 60.3978 112.634 62.6708C112.901 62.7544 113.114 62.9364 113.324 63.1155L113.416 63.1938C112.752 63.145 112.118 62.9523 111.485 62.7595C111.01 62.615 110.534 62.4703 110.045 62.3861C107.166 61.8113 104.184 61.5265 101.266 61.9615C99.4386 62.2903 97.5202 62.997 96.3604 64.5245C95.4879 65.6584 95.3947 67.4395 96.407 68.5165C97.5306 69.7048 99.524 69.6401 100.769 68.6796C101.016 68.4988 101.261 68.3122 101.506 68.1249C102.729 67.1939 103.973 66.2462 105.501 65.9121C109.232 64.9879 113.144 65.7309 116.758 66.8053C121.097 67.9884 125.2 70.1294 128.53 73.1661C134.078 78.0669 137.412 85.1035 138.678 92.3187C139.781 98.475 139.449 104.908 137.539 110.873C137.472 111.153 137.293 111.316 137.003 111.36C138.111 107.298 138.935 102.987 138.106 98.7935C137.671 96.769 136.674 94.4856 134.544 93.7943C132.913 93.217 130.927 94.338 130.795 96.1114C130.552 97.5988 131.452 98.7601 132.317 99.8771C132.556 100.185 132.792 100.49 133.001 100.797C135.075 103.774 134.818 107.634 134.311 111.049C133.358 115.673 131.815 120.276 129.014 124.128C124.691 130.334 117.805 134.43 110.527 136.18C104.202 137.692 97.5 137.681 91.1857 136.125C91.006 136.072 90.8209 136.024 90.6347 135.977C89.9601 135.804 89.2703 135.628 88.7651 135.129C89.4975 135.127 90.1974 135.32 90.8985 135.513C91.3497 135.638 91.8015 135.762 92.2627 135.835C95.4807 136.42 98.8436 136.783 102.059 135.978C103.516 135.576 104.992 134.883 105.908 133.635C106.758 132.47 106.74 130.686 105.696 129.645C104.793 128.692 103.289 128.496 102.134 129.096C101.477 129.452 100.893 129.918 100.31 130.384C99.6763 130.891 99.0423 131.398 98.3129 131.763C95.4884 133.135 92.2109 132.933 89.1975 132.426C84.2009 131.445 79.2639 129.632 75.2356 126.445C69.8865 122.334 66.1818 116.338 64.367 109.882C62.4461 103.122 62.4331 95.8577 64.1858 89.0619C64.2821 88.838 64.336 88.573 64.3905 88.3049C64.5075 87.73 64.6274 87.1409 65.1747 86.9131C64.1495 90.7964 63.3392 94.8661 63.9631 98.8892C64.279 100.676 64.9055 102.568 66.3838 103.728C67.4089 104.574 69.0115 104.885 70.1454 104.072C71.3544 103.365 71.7531 101.688 71.1913 100.447C70.8721 99.6917 70.3751 99.0471 69.8774 98.4016C69.4547 97.8533 69.0314 97.3043 68.7163 96.6861C67.2329 93.9756 67.396 90.7395 67.7895 87.7726C68.618 83.0194 70.2308 78.3232 73.0346 74.357C77.1975 68.3249 83.7499 64.1957 90.7684 62.3006ZM91.7315 76.7336C89.4118 77.984 87.8171 80.2183 86.6495 82.5224C85.4094 84.8912 84.8968 87.537 84.6535 90.1725C83.5092 90.0197 82.5875 89.1318 82.3235 88.0185C81.8934 86.7052 82.1772 85.365 82.4553 84.0521C82.522 83.7371 82.5884 83.4237 82.6445 83.1126C82.7431 82.7576 82.5607 82.4521 82.3847 82.1573C82.3297 82.0652 82.2753 81.9741 82.2303 81.8829C81.2569 81.8234 80.2627 82.3023 79.82 83.1955C78.4945 85.673 78.611 89.0153 80.444 91.2132C81.4953 92.5439 83.1545 93.2015 84.8036 93.3775C85.3602 95.0914 86.4476 96.7638 88.1951 97.4369C90.3335 98.299 92.6816 97.3955 94.5404 96.2719C94.5313 96.3651 94.5227 96.4587 94.5142 96.5524C94.4595 97.151 94.4043 97.7563 94.1961 98.3249C93.7471 98.6866 93.2306 98.9453 92.7142 99.2039C92.4804 99.321 92.2463 99.4383 92.0188 99.5649L91.8161 99.6718C88.2958 101.527 84.7235 103.409 81.7669 106.11C79.5715 108.17 77.8447 110.912 77.5133 113.948C77.3528 116.336 78.3029 118.955 80.3948 120.268C82.5795 121.715 85.4612 121.635 87.843 120.737C90.8461 119.593 93.0854 117.045 94.5663 114.265C96.7565 110.329 97.1319 105.739 97.4503 101.336C97.4697 101.222 97.4796 101.098 97.4896 100.971C97.5251 100.523 97.5633 100.041 98.0354 99.8678C101.613 97.856 105.09 95.6661 108.414 93.2558C108.808 93.74 109.196 94.2267 109.566 94.7263C107.855 95.7463 106.149 96.8466 104.857 98.3922C100.026 103.676 99.946 112.745 105.01 117.902C107.599 120.633 111.578 121.801 115.262 121.255C118.648 120.773 121.729 118.642 123.438 115.691C125.716 111.932 125.343 106.674 122.381 103.394C119.611 100.334 114.218 100.393 111.511 103.5C109.38 105.742 109.31 109.706 111.534 111.901C112.435 112.799 114.004 113.343 115.135 112.569C115.865 112.043 115.795 110.92 115.207 110.311L115.173 110.269C114.419 109.36 113.549 108.309 113.773 107.044C114.001 105.374 115.868 104.352 117.439 104.706C118.785 104.916 119.86 105.967 120.359 107.199C121.537 110.003 120.87 113.477 118.754 115.66C116.512 117.998 112.613 118.365 109.908 116.633C107.506 115.155 106.139 112.414 105.717 109.693C105.274 106.413 105.903 102.874 107.938 100.199C109.248 98.5058 111.076 97.1159 113.178 96.6134C113.476 96.6361 113.777 96.6642 114.078 96.6923C115.56 96.8304 117.066 96.971 118.503 96.502C119.316 96.225 120.108 95.3137 119.694 94.4232C119.246 93.5093 118.146 93.2349 117.229 93.0433C116.052 92.8095 114.879 93.0467 113.723 93.2808C113.535 93.3189 113.347 93.3569 113.159 93.3928C112.225 93.0718 111.73 92.0906 111.384 91.2259C113.983 89.2842 116.551 87.1743 118.316 84.412C119.342 82.7525 120.01 80.7151 119.528 78.7656C119.148 77.4738 118.089 76.3761 116.737 76.1302C114.485 75.5632 112.181 76.6997 110.651 78.3126C108.192 80.9817 106.944 84.6812 107.058 88.2901C107.044 88.5827 107.081 88.8809 107.118 89.1785C107.174 89.6393 107.23 90.099 107.102 90.5347C105.702 91.6631 104.177 92.6243 102.655 93.5838C102.172 93.8878 101.69 94.1918 101.212 94.5008C100.863 94.7036 100.519 94.9157 100.175 95.1278C99.3937 95.6094 98.6124 96.0912 97.7713 96.4632C97.792 95.3137 97.8516 94.1487 98.1804 93.0407C98.4904 92.6166 98.8289 92.2121 99.1676 91.8074C99.7819 91.0732 100.397 90.338 100.844 89.4836C101.352 88.5697 101.831 87.4125 101.303 86.4028C100.818 85.6546 99.7466 85.7271 99.045 86.0999C97.5487 86.8507 96.728 88.4351 96.1248 89.9211C95.9982 90.2115 95.9059 90.5232 95.8135 90.8353C95.6037 91.5442 95.3933 92.2549 94.7786 92.7223C93.5463 93.7993 92.0603 94.8814 90.3464 94.8193C89.3678 94.8244 88.7154 93.9028 88.5083 93.0381C91.2163 91.9868 93.4764 90.0244 95.3093 87.8086C97.005 85.6287 98.3538 83.0554 98.5816 80.2646C98.7085 78.8588 98.2063 77.2667 96.9222 76.5314C95.3171 75.6566 93.3055 75.9052 91.7315 76.7336Z" fill="#3A73B8"/>
<path fill-rule="evenodd" clip-rule="evenodd" d="M122.405 61.9435C115.068 57.7003 106.441 55.725 97.9888 56.3696C89.5516 56.9547 81.3242 60.1468 74.6863 65.3815C68.9597 69.8784 64.3851 75.838 61.5762 82.5613C58.5498 89.7895 57.5246 97.8694 58.7647 105.615C60.0255 114.311 64.1521 122.531 70.249 128.846C76.0014 134.818 83.5221 139.077 91.6176 140.881C99.3376 142.61 107.537 142.204 115.018 139.615C123.443 136.752 130.906 131.155 136.04 123.888C141.101 116.802 143.871 108.132 143.926 99.4304C143.996 91.1046 141.583 82.7658 137.021 75.7992C133.348 70.101 128.274 65.3271 122.405 61.9435ZM83.4753 62.3007C88.0164 60.1287 92.956 58.785 97.9784 58.4252C105.76 57.7909 113.719 59.5151 120.553 63.2822C132.208 69.5628 140.467 81.8134 141.64 95.0348C142.522 103.182 140.783 111.577 136.819 118.743C132.853 125.962 126.647 131.939 119.261 135.595C113.465 138.518 106.941 139.993 100.448 139.851C91.5554 139.776 82.7507 136.594 75.7892 131.072C69.7985 126.319 65.1644 119.878 62.6273 112.657C58.6715 101.553 59.8365 88.7177 65.8709 78.5744C69.9225 71.543 76.1695 65.8216 83.4753 62.3007Z" fill="#3A73B8"/>
<defs>
<filter id="filter0_d_2015_66" x="0" y="0" width="204" height="206" filterUnits="userSpaceOnUse" color-interpolation-filters="sRGB">
<feFlood flood-opacity="0" result="BackgroundImageFix"/>
<feColorMatrix in="SourceAlpha" type="matrix" values="0 0 0 0 0 0 0 0 0 0 0 0 0 0 0 0 0 0 127 0" result="hardAlpha"/>
<feMorphology radius="2" operator="erode" in="SourceAlpha" result="effect1_dropShadow_2015_66"/>
<feOffset dy="4"/>
<feGaussianBlur stdDeviation="2"/>
<feComposite in2="hardAlpha" operator="out"/>
<feColorMatrix type="matrix" values="0 0 0 0 0 0 0 0 0 0 0 0 0 0 0 0 0 0 0.27 0"/>
<feBlend mode="normal" in2="BackgroundImageFix" result="effect1_dropShadow_2015_66"/>
<feBlend mode="normal" in="SourceGraphic" in2="effect1_dropShadow_2015_66" result="shape"/>
</filter>
<linearGradient id="paint0_linear_2015_66" x1="2" y1="-64.7059" x2="102" y2="200" gradientUnits="userSpaceOnUse">
<stop stop-color="white"/>
<stop offset="1" stop-color="#7B2EA8"/>
</linearGradient>
</defs>
</svg>
