<svg width="91" height="91" viewBox="0 0 91 91" fill="none" xmlns="http://www.w3.org/2000/svg">
<circle cx="45.5" cy="45.5" r="45.5" fill="#B70AC1"/>
<path d="M68.036 36.9467C67.7207 36.5959 67.3406 36.3214 66.9205 36.1413V27.777C66.9205 27.3057 66.7479 26.8537 66.4405 26.5205C66.1332 26.1872 65.7163 26 65.2816 26C64.8488 26.0064 64.4354 26.1957 64.1293 26.5275C63.8233 26.8594 63.6487 27.3077 63.6428 27.777V35.715H63.1628C62.3946 32.9102 60.8115 30.4494 58.6493 28.6988C56.487 26.9483 53.8611 26.0017 51.1626 26H39.1191C36.4206 26.0017 33.7947 26.9483 31.6324 28.6988C29.4702 30.4494 27.8871 32.9102 27.1189 35.715H26.4858V27.777C26.4858 27.3057 26.3131 26.8537 26.0058 26.5205C25.6984 26.1872 25.2816 26 24.8469 26C24.4122 26 23.9954 26.1872 23.688 26.5205C23.3807 26.8537 23.208 27.3057 23.208 27.777V36.166C22.8083 36.3503 22.4445 36.6152 22.136 36.9467C21.4107 37.742 21.0027 38.8146 21 39.9331V52.0669C20.9994 52.621 21.0996 53.1698 21.2949 53.6819C21.4902 54.1939 21.7767 54.6592 22.1381 55.051C22.4995 55.4428 22.9286 55.7535 23.4009 55.9653C23.8731 56.177 24.3793 56.2857 24.8903 56.285H27.0755C27.8437 59.0898 29.4267 61.5506 31.589 63.3012C33.7513 65.0517 36.3771 65.9983 39.0756 66H50.9226C53.6211 65.9983 56.247 65.0517 58.4092 63.3012C60.5715 61.5506 62.1546 59.0898 62.9228 56.285H65.1056C65.6167 56.2857 66.1229 56.177 66.5951 55.9653C67.0674 55.7535 67.4965 55.4428 67.8579 55.051C68.2192 54.6592 68.5058 54.1939 68.7011 53.6819C68.8964 53.1698 68.9966 52.621 68.996 52.0669V39.9331C69.0417 38.8426 68.6965 37.772 68.036 36.9467ZM26.7052 52.7311H24.9772C24.8141 52.7325 24.6572 52.6639 24.5406 52.5403C24.4331 52.4096 24.3716 52.242 24.3669 52.0669V39.9331C24.3619 39.7638 24.4186 39.5992 24.5247 39.4749C24.6308 39.3506 24.7777 39.2766 24.9338 39.2689H26.7052C26.6953 39.3719 26.6953 39.4757 26.7052 39.5787V52.4213C26.6953 52.5243 26.6953 52.6281 26.7052 52.7311ZM36.5407 44.7212V38.3222C36.5118 38.0405 36.538 37.7554 36.6176 37.4854C36.6972 37.2155 36.8285 36.9667 37.0028 36.7555C37.1771 36.5443 37.3905 36.3754 37.6291 36.2597C37.8678 36.144 38.1262 36.0842 38.3876 36.0842C38.649 36.0842 38.9075 36.144 39.1461 36.2597C39.3848 36.3754 39.5982 36.5443 39.7725 36.7555C39.9468 36.9667 40.078 37.2155 40.1577 37.4854C40.2373 37.7554 40.2635 38.0405 40.2345 38.3222V44.7212C40.2635 45.0029 40.2373 45.288 40.1577 45.558C40.078 45.8279 39.9468 46.0766 39.7725 46.2878C39.5982 46.4991 39.3848 46.668 39.1461 46.7837C38.9075 46.8994 38.649 46.9592 38.3876 46.9592C38.1262 46.9592 37.8678 46.8994 37.6291 46.7837C37.3905 46.668 37.1771 46.4991 37.0028 46.2878C36.8285 46.0766 36.6972 45.8279 36.6176 45.558C36.538 45.288 36.5118 45.0029 36.5407 44.7212ZM49.654 56.5675H40.6939C40.2014 56.5675 39.729 56.3554 39.3807 55.9778C39.0324 55.6001 38.8368 55.088 38.8368 54.5539C38.8368 54.0199 39.0324 53.5077 39.3807 53.1301C39.729 52.7524 40.2014 52.5403 40.6939 52.5403H49.654C50.1469 52.5403 50.6196 52.7526 50.9681 53.1304C51.3166 53.5083 51.5123 54.0208 51.5123 54.5551C51.5123 55.0895 51.3166 55.602 50.9681 55.9799C50.6196 56.3577 50.1469 56.5675 49.654 56.5675ZM53.7409 44.7237C53.7409 45.258 53.5452 45.7705 53.1967 46.1484C52.8482 46.5263 52.3755 46.7385 51.8826 46.7385C51.3898 46.7385 50.9171 46.5263 50.5686 46.1484C50.2201 45.7705 50.0243 45.258 50.0243 44.7237V38.3222C50.0243 37.7878 50.2201 37.2753 50.5686 36.8975C50.9171 36.5196 51.3898 36.3073 51.8826 36.3073C52.3755 36.3073 52.8482 36.5196 53.1967 36.8975C53.5452 37.2753 53.7409 37.7878 53.7409 38.3222V44.7237ZM65.9582 52.0694C65.9582 52.2429 65.8942 52.4164 65.7845 52.5428C65.7265 52.6043 65.6579 52.6528 65.5826 52.6855C65.5073 52.7183 65.4268 52.7346 65.3456 52.7336H63.6199C63.6299 52.6306 63.6299 52.5268 63.6199 52.4238V39.487C63.6299 39.384 63.6299 39.2802 63.6199 39.1772H65.3685C65.4462 39.1767 65.5231 39.1933 65.5946 39.2262C65.6662 39.259 65.7308 39.3072 65.7845 39.368C65.8942 39.4969 65.9559 39.6654 65.9582 39.8389V52.0694Z" fill="white"/>
</svg>
