<svg width="61" height="161" viewBox="0 0 61 161" fill="none" xmlns="http://www.w3.org/2000/svg">
<g filter="url(#filter0_f_2212_63)">
<line x1="29.4899" y1="152.51" x2="27.5103" y2="55.5101" stroke="white" stroke-linecap="round" stroke-dasharray="2 4 6 8"/>
</g>
<line x1="29.4899" y1="152.51" x2="27.5103" y2="55.5101" stroke="white" stroke-linecap="round" stroke-dasharray="2 4 6 8"/>
<g filter="url(#filter1_d_2212_63)">
<path d="M50.509 24.8012L49.4603 23.5101L49.0304 23.0104C49.5857 20.9569 49.8983 18.8186 49.9588 16.6591C49.9588 12.2408 48.5098 8.00352 45.9304 4.87933C43.351 1.75515 39.8526 0 36.2048 0H29.8779C29.1644 0 28.463 0.208238 27.832 0.603892C27.0606 0.374829 26.2812 0.208239 25.4938 0.10412H24.17C20.5222 0.10412 17.0238 1.85927 14.4444 4.98345C11.865 8.10764 10.4159 12.3449 10.4159 16.7632V21.1362L8.37003 23.531C7.71338 24.3358 7.26747 25.3574 7.0882 26.4679C6.90892 27.5784 7.00426 28.7282 7.36226 29.7734C7.72026 30.8185 8.32499 31.7124 9.10065 32.3429C9.87632 32.9735 10.7884 33.3128 11.7226 33.3182C11.922 33.339 12.1226 33.339 12.3243 33.3182C12.5375 34.2823 12.9518 35.1632 13.5278 35.8795C14.3224 36.8147 15.3629 37.3822 16.4677 37.4829C16.5631 38.8256 17.0437 40.0855 17.8259 41.0438C18.6101 42.0005 19.6554 42.578 20.7659 42.6681C20.8464 44.0113 21.3222 45.2748 22.1069 46.229C22.9321 47.2358 24.0374 47.8342 25.2072 47.9074C26.377 47.9805 27.5273 47.5232 28.4338 46.6246L29.8435 48.3113C30.2829 48.8465 30.8053 49.2712 31.3806 49.561C31.956 49.8508 32.573 50 33.1961 50C33.8192 50 34.4362 49.8508 35.0115 49.561C35.5869 49.2712 36.1093 48.8465 36.5486 48.3113C37.3549 47.3627 37.8446 46.0877 37.924 44.7296C39.0346 44.6396 40.0798 44.0621 40.864 43.1054C41.63 42.1464 42.0979 40.8953 42.1878 39.5653C43.2964 39.4498 44.3365 38.8677 45.1277 37.9202C45.756 37.1613 46.1916 36.2002 46.3828 35.1507C47.1307 35.3078 47.899 35.2379 48.6191 34.9472C49.3392 34.6565 49.9886 34.154 50.509 33.4848C50.9815 32.9158 51.3565 32.2393 51.6124 31.4942C51.8683 30.749 52 29.95 52 29.143C52 28.336 51.8683 27.5369 51.6124 26.7918C51.3565 26.0467 50.9815 25.3702 50.509 24.8012ZM29.8779 4.16477H36.2048C38.9406 4.16477 41.5644 5.48113 43.499 7.82427C45.4335 10.1674 46.5203 13.3454 46.5203 16.6591C46.4893 17.647 46.3857 18.6296 46.2109 19.5952L39.1447 11.0158C38.9841 10.8228 38.7936 10.6701 38.5841 10.5665C38.3746 10.4629 38.1503 10.4103 37.924 10.4119H30.2218C29.836 10.4087 29.4606 10.5627 29.1558 10.8492L25.7173 14.0353C25.2813 14.395 24.7487 14.5407 24.2273 14.4427C23.7059 14.3448 23.2348 14.0105 22.9092 13.5077C22.5836 13.0048 22.428 12.3709 22.4737 11.7343C22.5195 11.0977 22.7632 10.5059 23.1556 10.0787L29.0871 4.4563C29.311 4.24214 29.5934 4.13804 29.8779 4.16477ZM10.7942 28.7161C10.5546 28.4136 10.4208 28.0107 10.4208 27.5916C10.4208 27.1725 10.5546 26.7696 10.7942 26.4671L13.3559 23.3644C13.4775 23.2168 13.6224 23.1002 13.7818 23.0215C13.9413 22.9429 14.1121 22.9037 14.2843 22.9062C14.4538 22.9041 14.622 22.9436 14.7786 23.0223C14.9352 23.101 15.077 23.2174 15.1955 23.3644C15.3182 23.5115 15.4155 23.6867 15.482 23.8797C15.5485 24.0727 15.5827 24.2797 15.5827 24.4889C15.5827 24.698 15.5485 24.905 15.482 25.098C15.4155 25.291 15.3182 25.4662 15.1955 25.6133L12.651 28.7161C12.3974 28.9971 12.0662 29.1529 11.7226 29.1529C11.3789 29.1529 11.0477 28.9971 10.7942 28.7161ZM15.5737 31.7564C15.5731 31.5493 15.608 31.3443 15.676 31.1544C15.7441 30.9644 15.8439 30.7936 15.9691 30.6527L18.5136 27.55C18.7576 27.2517 19.0894 27.0831 19.436 27.0811C19.7826 27.0792 20.1156 27.2441 20.3618 27.5395C20.6081 27.835 20.7473 28.2369 20.7489 28.6567C20.7505 29.0765 20.6144 29.4799 20.3704 29.7781L17.8087 32.8809C17.6551 33.0612 17.4676 33.1938 17.2623 33.2672C17.0571 33.3406 16.8402 33.3526 16.6303 33.3022C16.4204 33.2519 16.2237 33.1406 16.057 32.978C15.8904 32.8154 15.7587 32.6063 15.6734 32.3686C15.6041 32.1756 15.5701 31.9668 15.5737 31.7564ZM20.2501 35.9211L22.8118 32.8184C22.9334 32.6708 23.0783 32.5543 23.2377 32.4756C23.3972 32.3969 23.568 32.3577 23.7402 32.3603C23.9097 32.3581 24.0779 32.3976 24.2345 32.4763C24.3911 32.5551 24.5329 32.6714 24.6514 32.8184C24.7741 32.9655 24.8714 33.1407 24.9379 33.3337C25.0044 33.5267 25.0386 33.7338 25.0386 33.9429C25.0386 34.152 25.0044 34.3591 24.9379 34.5521C24.8714 34.7451 24.7741 34.9202 24.6514 35.0674L22.1069 38.0868C21.8583 38.3709 21.5281 38.5264 21.1864 38.5203C20.8447 38.5143 20.5184 38.3472 20.2768 38.0545C20.0351 37.7618 19.8972 37.3666 19.8922 36.9527C19.8872 36.5389 20.0156 36.1389 20.2501 35.8378V35.9211ZM24.5482 43.3553C24.4256 43.2081 24.3282 43.033 24.2617 42.84C24.1953 42.6469 24.161 42.4399 24.161 42.2308C24.161 42.0217 24.1953 41.8146 24.2617 41.6216C24.3282 41.4286 24.4256 41.2534 24.5482 41.1063L27.0927 38.0244C27.3389 37.7244 27.672 37.5526 28.0211 37.5454C28.1929 37.5465 28.3627 37.5886 28.521 37.6693C28.6793 37.7499 28.8229 37.8676 28.9437 38.0156C29.0644 38.1635 29.1598 38.3388 29.2246 38.5315C29.2893 38.7242 29.322 38.9304 29.3209 39.1384C29.321 39.5541 29.1878 39.9535 28.9495 40.2525L26.3878 43.3553C26.1322 43.6332 25.7974 43.7798 25.4541 43.7643C25.1109 43.7488 24.786 43.5722 24.5482 43.272V43.3553ZM46.8986 31.1108C46.2545 30.9008 45.6637 30.5 45.1793 29.9447V29.8406L41.7408 25.6758C41.4171 25.2837 40.978 25.0634 40.5201 25.0634C40.0623 25.0634 39.6232 25.2837 39.2995 25.6758C38.9757 26.0679 38.7938 26.5998 38.7938 27.1543C38.7938 27.7088 38.9757 28.2407 39.2995 28.6328L42.738 32.7976C42.9452 33.1011 43.0515 33.4874 43.0361 33.8808C43.0207 34.2742 42.8848 34.6465 42.6549 34.925C42.4249 35.2036 42.1175 35.3682 41.7927 35.3868C41.4679 35.4054 41.149 35.2767 40.8984 35.0257C40.741 34.8221 40.5515 34.6587 40.3411 34.5454C40.1307 34.4321 39.9036 34.3711 39.6734 34.366C39.4431 34.3608 39.2144 34.4118 39.0007 34.5157C38.787 34.6196 38.5926 34.7744 38.4292 34.9709C38.2658 35.1675 38.1366 35.4017 38.0493 35.6598C37.962 35.9179 37.9184 36.1946 37.921 36.4735C37.9236 36.7524 37.9723 37.0279 38.0644 37.2835C38.1565 37.5392 38.29 37.7699 38.457 37.9619C38.5792 38.1073 38.6762 38.2806 38.7424 38.4719C38.8087 38.6632 38.8428 38.8685 38.8428 39.076C38.8428 39.2834 38.8087 39.4887 38.7424 39.68C38.6762 39.8713 38.5792 40.0447 38.457 40.19C38.3355 40.3386 38.1909 40.4566 38.0316 40.5371C37.8722 40.6176 37.7013 40.659 37.5286 40.659C37.356 40.659 37.185 40.6176 37.0257 40.5371C36.8663 40.4566 36.7217 40.3386 36.6002 40.19C36.2781 39.8022 35.8423 39.5845 35.3881 39.5845C34.9339 39.5845 34.4982 39.8022 34.1761 40.19C33.8559 40.5802 33.6761 41.108 33.6761 41.6581C33.6761 42.2083 33.8559 42.736 34.1761 43.1262C34.4223 43.4217 34.5615 43.8235 34.5631 44.2433C34.5648 44.6631 34.4286 45.0665 34.1847 45.3648C33.9407 45.663 33.609 45.8316 33.2623 45.8336C32.9157 45.8355 32.5827 45.6707 32.3365 45.3752L30.9611 43.7093L31.4424 43.147C31.8848 42.6131 32.2358 41.9786 32.4753 41.28C32.7148 40.5814 32.8381 39.8324 32.8381 39.076C32.8381 38.3195 32.7148 37.5705 32.4753 36.8719C32.2358 36.1733 31.8848 35.5388 31.4424 35.0049C30.6452 34.0132 29.5739 33.4127 28.4338 33.3182C28.3533 31.975 27.8774 30.7114 27.0927 29.7573C26.3009 28.8294 25.268 28.2628 24.17 28.1539C24.0746 26.8112 23.5941 25.5513 22.8118 24.593C22.3031 23.9581 21.6795 23.4753 20.9902 23.1826C20.3009 22.8898 19.5649 22.7952 18.8403 22.9062C18.5585 21.6041 17.9003 20.4676 16.9854 19.7033C16.0705 18.9391 14.9595 18.5978 13.8545 18.7415V16.6591C13.8534 13.4058 14.9 10.2803 16.7718 7.94711C18.6435 5.61389 21.1928 4.25695 23.8777 4.16477L21.1269 6.76775C19.9993 7.86911 19.2744 9.4633 19.1086 11.2063C18.9429 12.9493 19.3496 14.7014 20.2409 16.0844C21.1323 17.4674 22.4369 18.3705 23.8731 18.5988C25.3094 18.8271 26.7622 18.3623 27.918 17.3046L30.8063 14.5767H37.2192L43.993 22.9062L48.0677 27.8207C48.3528 28.2033 48.5106 28.7004 48.5106 29.2159C48.5106 29.7313 48.3528 30.2284 48.0677 30.6111C47.9191 30.8095 47.7276 30.9536 47.515 31.0272C47.3023 31.1008 47.0769 31.1009 46.8642 31.0275L46.8986 31.1108Z" fill="white"/>
</g>
<defs>
<filter id="filter0_f_2212_63" x="19.6107" y="47.6101" width="17.7795" height="112.8" filterUnits="userSpaceOnUse" color-interpolation-filters="sRGB">
<feFlood flood-opacity="0" result="BackgroundImageFix"/>
<feBlend mode="normal" in="SourceGraphic" in2="BackgroundImageFix" result="shape"/>
<feGaussianBlur stdDeviation="3.7" result="effect1_foregroundBlur_2212_63"/>
</filter>
<filter id="filter1_d_2212_63" x="0.3" y="0" width="60.4" height="68.7" filterUnits="userSpaceOnUse" color-interpolation-filters="sRGB">
<feFlood flood-opacity="0" result="BackgroundImageFix"/>
<feColorMatrix in="SourceAlpha" type="matrix" values="0 0 0 0 0 0 0 0 0 0 0 0 0 0 0 0 0 0 127 0" result="hardAlpha"/>
<feOffset dx="1" dy="11"/>
<feGaussianBlur stdDeviation="3.85"/>
<feComposite in2="hardAlpha" operator="out"/>
<feColorMatrix type="matrix" values="0 0 0 0 0 0 0 0 0 0 0 0 0 0 0 0 0 0 0.31 0"/>
<feBlend mode="normal" in2="BackgroundImageFix" result="effect1_dropShadow_2212_63"/>
<feBlend mode="normal" in="SourceGraphic" in2="effect1_dropShadow_2212_63" result="shape"/>
</filter>
</defs>
</svg>
