<svg width="37" height="37" viewBox="0 0 37 37" fill="none" xmlns="http://www.w3.org/2000/svg">
<path d="M22.625 15.0996C22.6816 15.0996 22.7193 15.121 22.7383 15.1387C22.7427 15.1428 22.7451 15.1468 22.7471 15.1494C22.7452 15.1521 22.7431 15.1566 22.7383 15.1611C22.7193 15.1788 22.6816 15.2002 22.625 15.2002C22.5684 15.2002 22.5307 15.1788 22.5117 15.1611C22.5066 15.1563 22.5038 15.1521 22.502 15.1494C22.5039 15.1467 22.507 15.1431 22.5117 15.1387C22.5307 15.121 22.5684 15.0996 22.625 15.0996Z" fill="white" stroke="white" stroke-width="2"/>
<path opacity="0.25" fill-rule="evenodd" clip-rule="evenodd" d="M18.5 36C28.165 36 36 28.165 36 18.5C36 8.83502 28.165 1 18.5 1C8.83502 1 1 8.83502 1 18.5C1 28.165 8.83502 36 18.5 36Z" stroke="white" stroke-width="1.5"/>
</svg>
