<svg width="42" height="42" viewBox="0 0 42 42" fill="none" xmlns="http://www.w3.org/2000/svg">
<circle cx="21" cy="21.0874" r="20.5" fill="#111111" fill-opacity="0.31"/>
<path d="M20.658 29.7008L13.2438 22.2733C12.9963 22.0244 12.8574 21.6876 12.8574 21.3366C12.8574 20.9856 12.9963 20.6488 13.2438 20.3999L20.658 12.9724C20.8438 12.785 21.0813 12.6572 21.34 12.6053C21.5988 12.5534 21.8671 12.5797 22.1109 12.6809C22.3546 12.7821 22.5627 12.9536 22.7086 13.1735C22.8545 13.3935 22.9316 13.6519 22.93 13.9158V28.7574C22.9316 29.0213 22.8545 29.2797 22.7086 29.4996C22.5627 29.7196 22.3546 29.8911 22.1109 29.9923C21.8671 30.0935 21.5988 30.1198 21.34 30.0679C21.0813 30.016 20.8438 29.8882 20.658 29.7008Z" fill="white"/>
</svg>
