<svg width="91" height="94" viewBox="0 0 91 94" fill="none" xmlns="http://www.w3.org/2000/svg">
<ellipse cx="45.5" cy="47" rx="45.5" ry="47" fill="#B70AC1"/>
<path fill-rule="evenodd" clip-rule="evenodd" d="M32.5 43.9735V40.012C32.5 36.561 33.9223 33.2514 36.4541 30.8111C38.9858 28.3709 42.4196 27 46 27C49.5804 27 53.0142 28.3709 55.5459 30.8111C58.0777 33.2514 59.5 36.561 59.5 40.012V43.9735C61.73 44.1335 63.18 44.5383 64.242 45.5619C66 47.2545 66 49.9822 66 55.4337C66 60.8853 66 63.613 64.242 65.3055C62.486 67 59.656 67 54 67H38C32.344 67 29.514 67 27.758 65.3055C26 63.613 26 60.8853 26 55.4337C26 49.9822 26 47.2545 27.758 45.5619C28.818 44.5383 30.27 44.1335 32.5 43.9735ZM35.5 40.012C35.5 37.3279 36.6062 34.7537 38.5754 32.8558C40.5445 30.9578 43.2152 29.8916 46 29.8916C48.7848 29.8916 51.4555 30.9578 53.4246 32.8558C55.3938 34.7537 56.5 37.3279 56.5 40.012V43.8752C55.7347 43.8688 54.9013 43.8662 54 43.8675H38C37.0973 43.8662 36.264 43.8688 35.5 43.8752V40.012Z" fill="white"/>
</svg>
