<svg width="447" height="428" viewBox="0 0 447 428" fill="none" xmlns="http://www.w3.org/2000/svg">
<path d="M70.0154 190.627C26.1433 139.103 -14.561 30.2466 -14.561 30.2466L-118 379.48L135.625 395.538C232.304 401.659 409.967 402.056 416.869 283.123C423.771 164.191 169.643 307.629 70.0154 190.627Z" fill="url(#paint0_linear_2040_71)" fill-opacity="0.38"/>
<g filter="url(#filter0_f_2040_71)">
<path d="M70.0154 190.627C26.1433 139.103 -14.561 30.2466 -14.561 30.2466L-118 379.48L135.625 395.538C232.304 401.659 409.967 402.056 416.869 283.123C423.771 164.191 169.643 307.629 70.0154 190.627Z" fill="url(#paint1_linear_2040_71)" fill-opacity="0.38"/>
<path d="M-14.2448 37.989C-13.1069 40.8832 -11.623 44.6073 -9.82834 48.9969C-5.31572 60.0344 1.16012 75.2899 9.01083 92.1617C24.4357 125.311 45.2798 164.942 67.0779 191.011L68.1167 192.242C93.5765 222.142 128.83 235.286 166.905 240.195C204.94 245.099 246.095 241.823 283.615 238.643C321.35 235.444 355.133 232.385 379.096 237.397C391.008 239.889 400.145 244.314 406.127 251.408C412.076 258.464 415.212 268.529 414.374 282.966C412.689 311.996 400.621 333.656 381.966 349.83C363.241 366.065 337.785 376.845 309.309 383.796C252.341 397.701 184.082 396.101 135.77 393.043L-114.709 377.184L-14.2448 37.989Z" stroke="#140336" stroke-width="5"/>
</g>
<defs>
<filter id="filter0_f_2040_71" x="-147.8" y="0.446583" width="594.607" height="426.982" filterUnits="userSpaceOnUse" color-interpolation-filters="sRGB">
<feFlood flood-opacity="0" result="BackgroundImageFix"/>
<feBlend mode="normal" in="SourceGraphic" in2="BackgroundImageFix" result="shape"/>
<feGaussianBlur stdDeviation="14.9" result="effect1_foregroundBlur_2040_71"/>
</filter>
<linearGradient id="paint0_linear_2040_71" x1="333.698" y1="172.167" x2="92.6529" y2="321.759" gradientUnits="userSpaceOnUse">
<stop stop-color="#F27BF9"/>
<stop offset="1" stop-color="#B70AC1"/>
</linearGradient>
<linearGradient id="paint1_linear_2040_71" x1="306.165" y1="197.42" x2="-20.9776" y2="362.887" gradientUnits="userSpaceOnUse">
<stop stop-color="#F27BF9"/>
<stop offset="1" stop-color="#B70AC1"/>
</linearGradient>
</defs>
</svg>
