<svg width="422" height="235" viewBox="0 0 422 235" fill="none" xmlns="http://www.w3.org/2000/svg">
<mask id="mask0_2104_67" style="mask-type:alpha" maskUnits="userSpaceOnUse" x="4" y="-1" width="418" height="228">
<path d="M4 226.5V-0.00012207C4 -0.00012207 36 116.5 125 158C214 199.5 318 150.5 380 164C442 177.5 417 226.5 417 226.5H4Z" fill="url(#paint0_linear_2104_67)"/>
</mask>
<g mask="url(#mask0_2104_67)">
<g filter="url(#filter0_d_2104_67)">
<path d="M71.0152 120.626C27.143 69.1028 -13.5612 -39.7539 -13.5612 -39.7539L-117 309.48L136.625 325.538C233.304 331.659 410.967 332.055 417.869 213.123C424.771 94.1905 170.643 237.629 71.0152 120.626Z" fill="url(#paint1_linear_2104_67)" fill-opacity="0.38" shape-rendering="crispEdges"/>
</g>
</g>
<defs>
<filter id="filter0_d_2104_67" x="-121" y="-39.7539" width="543.007" height="375.382" filterUnits="userSpaceOnUse" color-interpolation-filters="sRGB">
<feFlood flood-opacity="0" result="BackgroundImageFix"/>
<feColorMatrix in="SourceAlpha" type="matrix" values="0 0 0 0 0 0 0 0 0 0 0 0 0 0 0 0 0 0 127 0" result="hardAlpha"/>
<feOffset dy="4"/>
<feGaussianBlur stdDeviation="2"/>
<feComposite in2="hardAlpha" operator="out"/>
<feColorMatrix type="matrix" values="0 0 0 0 0 0 0 0 0 0 0 0 0 0 0 0 0 0 0.25 0"/>
<feBlend mode="normal" in2="BackgroundImageFix" result="effect1_dropShadow_2104_67"/>
<feBlend mode="normal" in="SourceGraphic" in2="effect1_dropShadow_2104_67" result="shape"/>
</filter>
<linearGradient id="paint0_linear_2104_67" x1="313" y1="220.5" x2="98.5" y2="113.5" gradientUnits="userSpaceOnUse">
<stop stop-color="#F27BF9"/>
<stop offset="1" stop-color="#B70AC1"/>
</linearGradient>
<linearGradient id="paint1_linear_2104_67" x1="335.5" y1="194" x2="79.3639" y2="96.8162" gradientUnits="userSpaceOnUse">
<stop stop-color="#B70AC1"/>
<stop offset="1" stop-color="#B70AC1"/>
</linearGradient>
</defs>
</svg>
