<svg width="89" height="89" viewBox="0 0 89 89" fill="none" xmlns="http://www.w3.org/2000/svg">
<g filter="url(#filter0_d_2363_63)">
<circle cx="40" cy="40" r="36.5" transform="matrix(-0.999687 -0.0250316 0.0255671 -0.999673 82.9775 81.9771)" stroke="url(#paint0_linear_2363_63)" stroke-width="7" shape-rendering="crispEdges"/>
</g>
<path fill-rule="evenodd" clip-rule="evenodd" d="M31.4101 53.0228C37.8112 59.6378 48.3622 59.8112 54.9772 53.4101C61.5922 47.009 61.7656 36.4581 55.3645 29.8431C48.9634 23.2281 38.4124 23.0547 31.7974 29.4558C25.1824 35.8569 25.009 46.4078 31.4101 53.0228ZM48.2989 46.5183C48.3061 46.0764 48.1375 45.6498 47.8302 45.3322C47.5229 45.0146 47.102 44.8321 46.6601 44.8247L42.3509 44.7551L49.6282 37.7131C49.9459 37.4057 50.1284 36.9847 50.1357 36.5428C50.1429 36.1008 49.9743 35.674 49.6669 35.3564C49.3596 35.0387 48.9386 34.8562 48.4966 34.8489C48.0546 34.8417 47.6279 35.0103 47.3102 35.3177L40.0329 42.3597L40.1037 38.0493C40.1108 37.6072 39.9421 37.1804 39.6345 36.8628C39.3269 36.5452 38.9058 36.3628 38.4638 36.3557C38.0217 36.3486 37.5949 36.5173 37.2773 36.8249C36.9597 37.1325 36.7773 37.5536 36.7702 37.9956L36.6344 46.3278C36.6272 46.7697 36.7958 47.1963 37.1031 47.5139C37.4105 47.8315 37.8313 48.014 38.2732 48.0214L46.603 48.1594C46.822 48.1632 47.0395 48.1237 47.2433 48.0433C47.447 47.9628 47.6329 47.843 47.7903 47.6907C47.9477 47.5384 48.0735 47.3566 48.1606 47.1556C48.2477 46.9546 48.2943 46.7385 48.2977 46.5195L48.2989 46.5183Z" fill="#F0F0F0"/>
<defs>
<filter id="filter0_d_2363_63" x="0.0117188" y="0.989258" width="88.002" height="87.9993" filterUnits="userSpaceOnUse" color-interpolation-filters="sRGB">
<feFlood flood-opacity="0" result="BackgroundImageFix"/>
<feColorMatrix in="SourceAlpha" type="matrix" values="0 0 0 0 0 0 0 0 0 0 0 0 0 0 0 0 0 0 127 0" result="hardAlpha"/>
<feOffset dy="4"/>
<feGaussianBlur stdDeviation="2"/>
<feComposite in2="hardAlpha" operator="out"/>
<feColorMatrix type="matrix" values="0 0 0 0 0 0 0 0 0 0 0 0 0 0 0 0 0 0 0.25 0"/>
<feBlend mode="normal" in2="BackgroundImageFix" result="effect1_dropShadow_2363_63"/>
<feBlend mode="normal" in="SourceGraphic" in2="effect1_dropShadow_2363_63" result="shape"/>
</filter>
<linearGradient id="paint0_linear_2363_63" x1="40" y1="11.7143" x2="40" y2="82.8571" gradientUnits="userSpaceOnUse">
<stop stop-color="#B70AC1"/>
<stop offset="0.479448" stop-color="#B70AC1"/>
<stop offset="0.9375" stop-color="#292F43"/>
</linearGradient>
</defs>
</svg>
