<svg width="46" height="51" viewBox="0 0 46 51" fill="none" xmlns="http://www.w3.org/2000/svg">
<path d="M30.5 21.4737C28.1131 21.4737 25.8239 20.6253 24.136 19.1151C22.4482 17.605 21.5 15.5567 21.5 13.4211V2.68421H9.5C7.9087 2.68421 6.38258 3.24981 5.25736 4.25658C4.13214 5.26336 3.5 6.62884 3.5 8.05263V42.9474C3.5 44.3712 4.13214 45.7366 5.25736 46.7434C6.38258 47.7502 7.9087 48.3158 9.5 48.3158H36.5C38.0913 48.3158 39.6174 47.7502 40.7426 46.7434C41.8679 45.7366 42.5 44.3712 42.5 42.9474V21.4737H30.5ZM24.5 13.4211C24.5 14.8448 25.1321 16.2103 26.2574 17.2171C27.3826 18.2239 28.9087 18.7895 30.5 18.7895H41.27L24.5 3.78474V13.4211ZM9.5 0H24.5L45.5 18.7895V42.9474C45.5 45.0831 44.5518 47.1313 42.864 48.6414C41.1761 50.1516 38.8869 51 36.5 51H9.5C7.11305 51 4.82387 50.1516 3.13604 48.6414C1.44821 47.1313 0.5 45.0831 0.5 42.9474V8.05263C0.5 5.91694 1.44821 3.86872 3.13604 2.35856C4.82387 0.8484 7.11305 0 9.5 0Z" fill="white"/>
</svg>
