<svg width="131" height="101" viewBox="0 0 131 101" fill="none" xmlns="http://www.w3.org/2000/svg">
<g clip-path="url(#clip0_398_267)">
<path d="M15.314 36.257C15.314 36.257 -8.20195 77.265 4.42537 85.8179C17.0527 94.3708 49.7362 100.5 62.8729 100.482C75.992 100.465 115.876 97.7427 127.818 62.4424C139.761 27.1421 106.375 3.02899 76.0271 4.20567C45.6793 5.38235 15.314 36.257 15.314 36.257Z" fill="#292F43"/>
<path d="M116.141 22.9974C84.5814 24.736 53.0394 26.4747 21.4799 28.2309C19.109 27.2826 16.7205 26.3518 14.332 25.4034C14.4374 24.4375 14.5428 23.4891 14.6482 22.5232C33.0184 15.2524 51.3535 7.87618 69.8115 0.868799C71.9541 0.0609313 74.9924 0.763425 77.3633 1.51861C92.6074 6.45363 107.816 11.5291 122.973 16.7276C124.922 17.395 126.573 18.9229 130.033 21.1006C124.009 21.9261 120.075 22.4529 116.141 22.9974ZM109.678 18.2906C98.5786 13.9176 86.4957 9.1231 74.3601 4.46908C73.1659 4.01246 71.4799 4.11783 70.2857 4.60958C56.2885 10.3173 42.344 16.1305 28.9088 21.7153C55.8845 20.5738 83.2467 19.4146 109.678 18.2906Z" fill="#B70AC1"/>
<path d="M16.5449 72.4354C31.5432 72.0314 46.559 71.6451 61.5572 71.1884C81.8242 70.5738 102.074 69.8888 122.341 69.239C122.077 73.1203 121.814 77.0191 121.55 80.9004C120.918 80.2682 120.303 79.6535 119.671 79.0212C120.391 73.5945 117.23 72.8393 112.857 73.0676C82.0525 74.7185 51.2306 76.3166 21.0584 77.8797C19.7764 80.6019 18.7227 82.8323 17.6865 85.0627C17.3001 80.8653 16.9313 76.6503 16.5449 72.4354Z" fill="#B70AC1"/>
<path d="M23.2184 31.8312C27.3807 31.0409 31.5605 30.2506 37.3034 29.1617C37.7776 41.0163 38.0059 51.6591 38.7084 62.2492C39.1123 68.5541 34.8447 68.2028 30.8053 68.8351C25.923 69.5903 23.5872 67.5355 23.5696 62.7585C23.5345 56.6644 23.7453 50.5527 23.6399 44.4585C23.5872 41.2973 23.113 38.1537 22.832 34.9924C22.9374 33.9387 23.0779 32.885 23.2184 31.8312ZM29.5935 64.4621C34.1597 62.3195 35.4242 48.1993 32.2981 34.3251C28.048 37.3282 26.6255 53.1695 29.5935 64.4621Z" fill="#B70AC1"/>
<path d="M28.4863 84.0617C35.8801 82.4986 43.2387 79.7413 50.65 79.5657C72.8137 79.0739 94.9949 79.6008 117.176 79.7062C118.002 79.7062 118.827 79.2671 119.652 79.0388C120.285 79.6711 120.899 80.2857 121.532 80.918C117.51 81.7083 113.488 82.5162 109.466 83.3065C87.3553 83.7455 65.2619 84.2197 43.1509 84.6061C38.8657 84.6763 34.5629 84.3778 30.2601 84.2373C29.6806 84.1846 29.0834 84.1143 28.4863 84.0617Z" fill="#B70AC1"/>
<path d="M46.6114 65.5861C45.9265 54.0652 45.2416 42.5618 44.5566 31.3395C55.0414 27.107 56.8678 27.8446 57.7284 37.6444C58.3782 45.1259 58.6241 52.8007 57.5879 60.1769C57.2015 62.9693 52.7583 65.2173 50.159 67.7111C48.9648 67.0086 47.7881 66.3061 46.6114 65.5861ZM50.1239 61.2482C51.002 61.336 51.8801 61.4062 52.7583 61.494C52.7583 52.2387 52.7583 42.9833 52.7583 33.728C51.8801 33.728 51.002 33.7455 50.1239 33.7455C50.1239 42.9131 50.1239 52.0806 50.1239 61.2482Z" fill="#B70AC1"/>
<path d="M67.2993 66.8154C66.667 56.5239 65.9997 47.0051 65.5606 37.4512C65.3323 32.5688 65.5079 27.8621 72.445 27.7392C79.2241 27.6162 78.6797 32.8674 79.0485 36.854C79.628 42.9306 78.7499 49.2004 79.6807 55.1891C81.2789 65.3577 75.9048 67.2545 67.2993 66.8154ZM70.5483 31.48C70.5483 42.1403 70.5483 52.3616 70.5483 62.9517C77.7664 59.3514 77.7137 36.2394 70.5483 31.48Z" fill="#B70AC1"/>
<path d="M99.5092 62.0736C87.0224 66.2183 86.9697 66.2183 86.8292 55.1189C86.7238 46.7943 86.8116 38.4522 86.8116 29.9872C89.9553 30.1804 92.7477 30.356 96.5236 30.6019C97.5422 41.2446 98.5433 51.7996 99.5092 62.0736ZM91.2374 60.8091C92.695 60.6335 94.1527 60.4579 95.6104 60.2822C94.662 51.3079 93.6961 42.3511 92.7477 33.3767C91.5886 33.4996 90.4119 33.6226 89.2528 33.7455C89.9202 42.755 90.5875 51.7821 91.2374 60.8091Z" fill="#B70AC1"/>
<path d="M105.708 62.4599C105.708 52.9235 105.427 43.3521 105.954 33.8333C106.059 31.9892 109.343 30.3032 111.17 28.5646C112.873 30.3559 115.911 32.0595 116.034 33.9387C116.544 41.7539 116.825 49.7096 115.788 57.4195C115.42 60.2119 111.082 62.4599 108.553 64.9538C107.604 64.1283 106.656 63.2853 105.708 62.4599ZM111.714 33.8333C111.187 33.8157 110.678 33.7982 110.151 33.7982C110.151 42.1578 110.151 50.5351 110.151 58.8948C110.678 58.9123 111.187 58.9299 111.714 58.9474C111.714 50.5702 111.714 42.193 111.714 33.8333Z" fill="#B70AC1"/>
<path d="M109.677 18.2906C83.2461 19.4146 55.884 20.5737 28.9082 21.7153C42.361 16.1304 56.3055 10.2998 70.2851 4.60955C71.4793 4.1178 73.1653 4.01243 74.3596 4.46905C86.4951 9.12307 98.578 13.9176 109.677 18.2906Z" fill="#292F43"/>
</g>
<defs>
<clipPath id="clip0_398_267">
<rect width="129.593" height="100" fill="white" transform="translate(0.703125 0.5)"/>
</clipPath>
</defs>
</svg>
