<svg width="111" height="101" viewBox="0 0 111 101" fill="none" xmlns="http://www.w3.org/2000/svg">
<g clip-path="url(#clip0_398_253)">
<path d="M85.4979 23.3139C93.2354 26.0084 100.837 28.8987 104.571 37.1329C97.6009 37.1931 90.6161 37.0577 83.6614 37.434C81.8399 37.5394 78.7239 39.0748 78.5583 40.2941C77.5196 47.5198 77.1583 54.8508 76.5863 62.0915C87.0785 62.0915 96.1256 62.0915 104.36 62.0915C104.992 54.2035 105.564 47.0682 106.121 39.9329C112.308 46.6316 109.854 54.7605 108.319 61.7603C103.622 83.1513 84.0377 98.9423 62.3457 99.7703C57.7093 99.9509 53.0126 98.6563 48.346 98.0241C48.7374 97.3918 49.6256 96.4134 49.46 96.1876C42.9569 87.02 36.3484 77.9277 28.8518 67.571C22.3487 77.8826 17.08 86.2071 11.8264 94.5467C7.68668 91.5662 0.83736 91.1296 1.00295 83.9943C1.28896 71.8311 18.209 39.8877 23.282 35.4921C23.1014 42.3264 23.8842 48.6488 32.0883 50.5154C40.3827 52.3971 47.5482 49.5972 49.189 44.0123C51.3266 36.7265 47.1267 30.5094 38.0796 27.574C36.6645 27.1224 35.2194 26.746 33.7893 26.3246C39.6752 18.3462 48.5267 18.6322 57.0469 18C55.6018 21.2817 54.1566 24.5633 52.3803 28.5675C62.7371 27.9503 71.9046 27.5589 81.027 26.7009C82.6076 26.5654 84.0076 24.5031 85.4979 23.3139ZM64.8596 44.5392C66.666 45.3672 67.8252 45.894 68.9692 46.4359C69.3155 46.1048 69.6466 45.7585 69.9929 45.4274C68.3671 42.6575 66.7413 39.8726 64.5887 36.1996C61.2468 39.3909 58.7028 41.7995 56.1738 44.2231C56.8813 44.4188 57.5888 44.6295 58.2963 44.8252C58.6727 46.7822 59.9974 49.2961 59.2447 50.6208C55.7071 56.8078 51.5825 62.6636 47.6837 68.6398C46.9009 69.829 46.1633 71.0634 45.4106 72.2677C56.3093 66.2312 61.5178 56.4013 64.8596 44.5392Z" fill="#292F43"/>
<path d="M11.7476 94.9452C17.0163 86.6056 22.2699 78.266 28.773 67.9695C36.2696 78.3262 42.8781 87.4336 49.3812 96.5861C49.5468 96.8269 48.6586 97.7903 48.2672 98.4226C35.4116 99.1 22.556 99.7774 8.75195 100.5C10.0014 98.1968 10.8745 96.571 11.7476 94.9452Z" fill="#B70AC1"/>
<path d="M85.4354 23.6974C83.9451 24.8866 82.5451 26.9489 80.9494 27.0994C71.827 27.9424 62.6595 28.3489 52.3027 28.9661C54.079 24.9468 55.5242 21.6802 56.9693 18.3985C60.2811 12.6331 63.5778 6.88266 67.2508 0.5C73.6184 8.62886 79.5344 16.1706 85.4354 23.6974ZM61.2896 17.7512C60.0402 19.9641 58.7908 22.192 57.1801 25.0522C65.4594 24.45 72.4743 23.9533 80.1968 23.3963C77.9086 20.5361 76.2227 18.4437 74.5367 16.3362C72.3389 13.2503 70.1411 10.1643 67.4013 6.35579C64.9928 10.8417 63.1412 14.304 61.2896 17.7512Z" fill="#B70AC1"/>
<path d="M106.058 40.3314C105.486 47.4668 104.914 54.587 104.297 62.4901C96.0628 62.4901 87.0157 62.4901 76.5234 62.4901C77.1105 55.2644 77.4568 47.9334 78.4954 40.6927C78.6761 39.4734 81.7771 37.9379 83.5986 37.8326C90.5532 37.4412 97.538 37.5917 104.508 37.5315C105.02 38.4498 105.546 39.3831 106.058 40.3314ZM80.2717 59.359C87.5727 59.359 94.1661 59.359 101.181 59.359C101.181 53.1419 101.181 47.2861 101.181 40.5121C94.5725 40.9035 88.2501 41.2647 81.4911 41.6561C81.2051 44.7421 80.9341 47.1807 80.7685 49.6345C80.5427 52.7957 80.4373 55.9569 80.2717 59.359Z" fill="#B70AC1"/>
<path d="M33.726 26.708C35.1561 27.1145 36.6012 27.4908 38.0162 27.9574C47.0633 30.8929 51.2632 37.1099 49.1257 44.3958C47.4848 49.9806 40.3194 52.7806 32.025 50.8989C23.8359 49.0473 23.0381 42.7098 23.2187 35.8756C26.7261 32.8197 30.2185 29.7639 33.726 26.708ZM36.4958 47.9334C43.0441 48.0839 45.8741 46.0667 45.9945 41.1744C46.13 35.7852 41.3882 31.2843 35.1561 31.0585C30.053 30.8778 27.1476 33.467 26.7412 38.525C26.2444 44.6668 29.5562 47.7678 36.4958 47.9334Z" fill="#B70AC1"/>
<path d="M64.7967 44.9227C61.4548 56.7848 56.2463 66.6147 45.3477 72.6512C46.1003 71.4469 46.8379 70.2125 47.6207 69.0233C51.5196 63.0471 55.6442 57.1913 59.1818 51.0043C59.9344 49.6796 58.6097 47.1657 58.2334 45.2088C57.5259 45.0131 56.8184 44.8023 56.1109 44.6066C58.6549 42.183 61.1839 39.7745 64.5257 36.5831C66.6784 40.2562 68.3042 43.026 69.9299 45.8109C69.5837 46.1421 69.2525 46.4883 68.9063 46.8195C67.7622 46.2775 66.6031 45.7507 64.7967 44.9227Z" fill="#B70AC1"/>
<path d="M74.5207 16.3362C76.2067 18.4437 77.8926 20.5361 80.1808 23.3962C72.4584 23.9532 65.4435 24.465 57.1641 25.0521C58.7748 22.192 60.0242 19.9791 61.2737 17.7512C65.6994 17.2845 70.11 16.8028 74.5207 16.3362Z" fill="#292F43"/>
<path d="M80.2715 59.3589C80.4371 55.9418 80.5575 52.7957 80.7532 49.6495C80.9188 47.1958 81.1897 44.7571 81.4758 41.6712C88.2498 41.2798 94.5723 40.9034 101.166 40.5271C101.166 47.2861 101.166 53.1569 101.166 59.374C94.1508 59.359 87.5573 59.3589 80.2715 59.3589Z" fill="#292F43"/>
<path d="M36.4966 47.9334C29.557 47.7829 26.2452 44.6668 26.742 38.525C27.1484 33.4671 30.0688 30.8779 35.1569 31.0585C41.374 31.2843 46.1308 35.7853 45.9954 41.1744C45.8749 46.0518 43.0449 48.0689 36.4966 47.9334Z" fill="#292F43"/>
</g>
<defs>
<clipPath id="clip0_398_253">
<rect width="109.122" height="100" fill="white" transform="translate(0.939453 0.5)"/>
</clipPath>
</defs>
</svg>
