<svg width="89" height="89" viewBox="0 0 89 89" fill="none" xmlns="http://www.w3.org/2000/svg">
<g filter="url(#filter0_d_273_1368)">
<circle cx="44.2719" cy="40.73" r="36.5" transform="rotate(-179.612 44.2719 40.73)" stroke="url(#paint0_linear_273_1368)" stroke-width="7" shape-rendering="crispEdges"/>
</g>
<path d="M42.2708 45.0553C42.2708 45.5984 42.1153 46.06 41.8043 46.4402C41.4932 46.8203 41.1205 47.0104 40.686 47.0104H34.3765C33.942 47.0104 33.5693 46.8203 33.2582 46.4402C32.9472 46.06 32.7917 45.5984 32.7917 45.0553C32.7917 44.5221 32.8287 44.026 32.9028 43.5668C32.9768 43.1077 33.0978 42.6633 33.2656 42.2338C33.4335 41.8043 33.6853 41.4661 34.021 41.2192C34.3567 40.9724 34.7566 40.849 35.2207 40.849C35.8526 41.4809 36.6228 41.7969 37.5312 41.7969C38.4397 41.7969 39.2099 41.4809 39.8418 40.849C40.3059 40.849 40.7058 40.9724 41.0415 41.2192C41.3772 41.4661 41.629 41.8043 41.7969 42.2338C41.9647 42.6633 42.0857 43.1077 42.1597 43.5668C42.2338 44.026 42.2708 44.5221 42.2708 45.0553ZM40.375 38.4792C40.375 39.2691 40.0985 39.9405 39.5456 40.4935C38.9926 41.0464 38.3212 41.3229 37.5312 41.3229C36.7413 41.3229 36.0699 41.0464 35.5169 40.4935C34.964 39.9405 34.6875 39.2691 34.6875 38.4792C34.6875 37.6892 34.964 37.0178 35.5169 36.4648C36.0699 35.9119 36.7413 35.6354 37.5312 35.6354C38.3212 35.6354 38.9926 35.9119 39.5456 36.4648C40.0985 37.0178 40.375 37.6892 40.375 38.4792ZM55.5417 44.6406V45.5885C55.5417 45.7268 55.4972 45.8403 55.4084 45.9292C55.3195 46.0181 55.2059 46.0625 55.0677 46.0625H44.6406C44.5024 46.0625 44.3888 46.0181 44.3 45.9292C44.2111 45.8403 44.1667 45.7268 44.1667 45.5885V44.6406C44.1667 44.5024 44.2111 44.3888 44.3 44.3C44.3888 44.2111 44.5024 44.1667 44.6406 44.1667H55.0677C55.2059 44.1667 55.3195 44.2111 55.4084 44.3C55.4972 44.3888 55.5417 44.5024 55.5417 44.6406ZM49.8542 40.849V41.7969C49.8542 41.9351 49.8097 42.0487 49.7209 42.1375C49.632 42.2264 49.5184 42.2708 49.3802 42.2708H44.6406C44.5024 42.2708 44.3888 42.2264 44.3 42.1375C44.2111 42.0487 44.1667 41.9351 44.1667 41.7969V40.849C44.1667 40.7107 44.2111 40.5972 44.3 40.5083C44.3888 40.4194 44.5024 40.375 44.6406 40.375H49.3802C49.5184 40.375 49.632 40.4194 49.7209 40.5083C49.8097 40.5972 49.8542 40.7107 49.8542 40.849ZM55.5417 40.849V41.7969C55.5417 41.9351 55.4972 42.0487 55.4084 42.1375C55.3195 42.2264 55.2059 42.2708 55.0677 42.2708H52.224C52.0857 42.2708 51.9722 42.2264 51.8833 42.1375C51.7944 42.0487 51.75 41.9351 51.75 41.7969V40.849C51.75 40.7107 51.7944 40.5972 51.8833 40.5083C51.9722 40.4194 52.0857 40.375 52.224 40.375H55.0677C55.2059 40.375 55.3195 40.4194 55.4084 40.5083C55.4972 40.5972 55.5417 40.7107 55.5417 40.849ZM55.5417 37.0573V38.0052C55.5417 38.1434 55.4972 38.257 55.4084 38.3459C55.3195 38.4347 55.2059 38.4792 55.0677 38.4792H44.6406C44.5024 38.4792 44.3888 38.4347 44.3 38.3459C44.2111 38.257 44.1667 38.1434 44.1667 38.0052V37.0573C44.1667 36.9191 44.2111 36.8055 44.3 36.7166C44.3888 36.6278 44.5024 36.5833 44.6406 36.5833H55.0677C55.2059 36.5833 55.3195 36.6278 55.4084 36.7166C55.4972 36.8055 55.5417 36.9191 55.5417 37.0573ZM57.4375 49.3802V32.7917H30.8958V49.3802C30.8958 49.5086 30.9427 49.6197 31.0365 49.7135C31.1303 49.8073 31.2414 49.8542 31.3698 49.8542H56.9635C57.0919 49.8542 57.203 49.8073 57.2968 49.7135C57.3906 49.6197 57.4375 49.5086 57.4375 49.3802ZM59.3333 31.3698V49.3802C59.3333 50.0319 59.1013 50.5898 58.6372 51.0539C58.1731 51.518 57.6152 51.75 56.9635 51.75H31.3698C30.7181 51.75 30.1602 51.518 29.6961 51.0539C29.232 50.5898 29 50.0319 29 49.3802V31.3698C29 30.7181 29.232 30.1602 29.6961 29.6961C30.1602 29.232 30.7181 29 31.3698 29H56.9635C57.6152 29 58.1731 29.232 58.6372 29.6961C59.1013 30.1602 59.3333 30.7181 59.3333 31.3698Z" fill="white"/>
<defs>
<filter id="filter0_d_273_1368" x="0.271973" y="0.72998" width="88" height="88" filterUnits="userSpaceOnUse" color-interpolation-filters="sRGB">
<feFlood flood-opacity="0" result="BackgroundImageFix"/>
<feColorMatrix in="SourceAlpha" type="matrix" values="0 0 0 0 0 0 0 0 0 0 0 0 0 0 0 0 0 0 127 0" result="hardAlpha"/>
<feOffset dy="4"/>
<feGaussianBlur stdDeviation="2"/>
<feComposite in2="hardAlpha" operator="out"/>
<feColorMatrix type="matrix" values="0 0 0 0 0 0 0 0 0 0 0 0 0 0 0 0 0 0 0.25 0"/>
<feBlend mode="normal" in2="BackgroundImageFix" result="effect1_dropShadow_273_1368"/>
<feBlend mode="normal" in="SourceGraphic" in2="effect1_dropShadow_273_1368" result="shape"/>
</filter>
<linearGradient id="paint0_linear_273_1368" x1="44.2719" y1="12.4443" x2="44.2719" y2="83.5871" gradientUnits="userSpaceOnUse">
<stop stop-color="#B70AC1"/>
<stop offset="0.479448" stop-color="#B70AC1"/>
<stop offset="0.9375" stop-color="#292F43"/>
</linearGradient>
</defs>
</svg>
