<svg width="91" height="94" viewBox="0 0 91 94" fill="none" xmlns="http://www.w3.org/2000/svg">
<ellipse cx="45.5" cy="47" rx="45.5" ry="47" fill="#B70AC1"/>
<path d="M27.3333 40.3333H64.6667M27.3333 53.6667H64.6667M26 47C26 49.6264 26.5173 52.2272 27.5224 54.6537C28.5275 57.0802 30.0007 59.285 31.8579 61.1421C33.715 62.9993 35.9198 64.4725 38.3463 65.4776C40.7728 66.4827 43.3736 67 46 67C48.6264 67 51.2272 66.4827 53.6537 65.4776C56.0802 64.4725 58.285 62.9993 60.1421 61.1421C61.9993 59.285 63.4725 57.0802 64.4776 54.6537C65.4827 52.2272 66 49.6264 66 47C66 41.6957 63.8929 36.6086 60.1421 32.8579C56.3914 29.1071 51.3043 27 46 27C40.6957 27 35.6086 29.1071 31.8579 32.8579C28.1071 36.6086 26 41.6957 26 47Z" stroke="white" stroke-width="2" stroke-linecap="round" stroke-linejoin="round"/>
<path d="M44.8891 27C41.1454 32.9991 39.1606 39.9286 39.1606 47C39.1606 54.0714 41.1454 61.0009 44.8891 67M47.1113 27C50.855 32.9991 52.8397 39.9286 52.8397 47C52.8397 54.0714 50.855 61.0009 47.1113 67" stroke="white" stroke-width="2" stroke-linecap="round" stroke-linejoin="round"/>
</svg>
