<svg width="204" height="206" viewBox="0 0 204 206" fill="none" xmlns="http://www.w3.org/2000/svg">
<g filter="url(#filter0_d_2404_107)">
<circle cx="102" cy="100" r="100" fill="url(#paint0_linear_2404_107)"/>
</g>
<path d="M88.0489 57.0258C78.8566 60.2147 70.9293 66.2673 65.4312 74.2945C59.9331 82.3218 57.1541 91.9006 57.5023 101.624C57.8505 111.347 61.3077 120.703 67.366 128.316C73.4242 135.93 81.7643 141.4 91.1611 143.923C98.7793 145.888 106.761 145.975 114.42 144.174C121.358 142.616 127.773 139.282 133.035 134.5C138.513 129.371 142.489 122.845 144.535 115.626C146.76 107.774 147.156 99.5178 145.693 91.4899H102.913V109.236H127.688C127.193 112.066 126.132 114.768 124.568 117.178C123.005 119.589 120.971 121.659 118.589 123.266C115.563 125.267 112.153 126.614 108.576 127.219C104.989 127.886 101.31 127.886 97.7232 127.219C94.0877 126.467 90.6486 124.967 87.6248 122.813C82.7671 119.374 79.1197 114.489 77.2029 108.855C75.2538 103.115 75.2538 96.8921 77.2029 91.1521C78.5673 87.1286 80.8228 83.4653 83.8011 80.4355C87.2093 76.9046 91.5243 74.3807 96.2725 73.1408C101.021 71.9008 106.019 71.9926 110.718 73.4061C114.389 74.5331 117.747 76.5021 120.522 79.1561C123.316 76.377 126.104 73.5906 128.888 70.7971C130.326 69.2949 131.893 67.8646 133.309 66.3265C129.072 62.3839 124.099 59.3162 118.675 57.299C108.797 53.7123 97.989 53.6159 88.0489 57.0258Z" fill="white"/>
<path d="M88.0492 57.0259C97.9885 53.6137 108.797 53.7075 118.675 57.2918C124.1 59.3228 129.071 62.4053 133.302 66.3625C131.864 67.9006 130.348 69.3381 128.881 70.8331C126.093 73.6171 123.306 76.3914 120.522 79.1562C117.747 76.5021 114.39 74.5332 110.719 73.4062C106.021 71.9877 101.023 71.8906 96.2733 73.1255C91.5238 74.3604 87.2062 76.8797 83.7942 80.4068C80.8159 83.4366 78.5605 87.1 77.1961 91.1234L62.2964 79.5875C67.6296 69.0115 76.8636 60.9217 88.0492 57.0259Z" fill="#E33629"/>
<path d="M58.3429 91.0155C59.1437 87.0465 60.4733 83.2029 62.296 79.5874L77.1957 91.1521C75.2466 96.8921 75.2466 103.115 77.1957 108.855C72.2315 112.688 67.265 116.541 62.296 120.412C57.733 111.33 56.3414 100.981 58.3429 91.0155Z" fill="#F8BD00"/>
<path d="M102.913 91.4829H145.693C147.156 99.5109 146.76 107.767 144.536 115.619C142.489 122.838 138.513 129.364 133.036 134.493C128.227 130.741 123.397 127.018 118.589 123.266C120.973 121.658 123.007 119.585 124.571 117.172C126.135 114.759 127.195 112.055 127.688 109.222H102.913C102.906 103.314 102.913 97.3982 102.913 91.4829Z" fill="#587DBD"/>
<path d="M62.2891 120.412C67.258 116.579 72.2246 112.727 77.1887 108.855C79.1093 114.491 82.762 119.377 87.625 122.813C90.6582 124.957 94.1047 126.445 97.745 127.183C101.332 127.85 105.011 127.85 108.598 127.183C112.175 126.578 115.585 125.231 118.61 123.23C123.419 126.982 128.249 130.705 133.057 134.457C127.795 139.242 121.381 142.578 114.442 144.138C106.783 145.939 98.801 145.853 91.1828 143.887C85.1575 142.278 79.5295 139.442 74.6516 135.557C69.4885 131.457 65.2716 126.292 62.2891 120.412Z" fill="#319F43"/>
<defs>
<filter id="filter0_d_2404_107" x="0" y="0" width="204" height="206" filterUnits="userSpaceOnUse" color-interpolation-filters="sRGB">
<feFlood flood-opacity="0" result="BackgroundImageFix"/>
<feColorMatrix in="SourceAlpha" type="matrix" values="0 0 0 0 0 0 0 0 0 0 0 0 0 0 0 0 0 0 127 0" result="hardAlpha"/>
<feMorphology radius="2" operator="erode" in="SourceAlpha" result="effect1_dropShadow_2404_107"/>
<feOffset dy="4"/>
<feGaussianBlur stdDeviation="2"/>
<feComposite in2="hardAlpha" operator="out"/>
<feColorMatrix type="matrix" values="0 0 0 0 0 0 0 0 0 0 0 0 0 0 0 0 0 0 0.27 0"/>
<feBlend mode="normal" in2="BackgroundImageFix" result="effect1_dropShadow_2404_107"/>
<feBlend mode="normal" in="SourceGraphic" in2="effect1_dropShadow_2404_107" result="shape"/>
</filter>
<linearGradient id="paint0_linear_2404_107" x1="2" y1="-64.7059" x2="102" y2="200" gradientUnits="userSpaceOnUse">
<stop stop-color="white"/>
<stop offset="1" stop-color="#7B2EA8"/>
</linearGradient>
</defs>
</svg>
