<svg width="75" height="74" viewBox="0 0 75 74" fill="none" xmlns="http://www.w3.org/2000/svg">
<circle cx="37.5" cy="37" r="37" fill="#292F43"/>
<path d="M39.9828 20.9327C40.4516 20.3355 41.0874 20 41.7503 20C42.4132 20 43.049 20.3355 43.5179 20.9327L54.768 35.2671C55.2367 35.8645 55.5 36.6746 55.5 37.5192C55.5 38.3639 55.2367 39.174 54.768 39.7713L43.5179 54.1058C43.0463 54.6861 42.4148 55.0071 41.7593 54.9999C41.1038 54.9926 40.4768 54.6576 40.0133 54.067C39.5497 53.4764 39.2868 52.6775 39.2811 51.8422C39.2754 51.007 39.5274 50.2024 39.9828 49.6016L46.7504 40.7047H23C22.337 40.7047 21.7011 40.3691 21.2322 39.7717C20.7634 39.1743 20.5 38.3641 20.5 37.5192C20.5 36.6744 20.7634 35.8642 21.2322 35.2668C21.7011 34.6694 22.337 34.3338 23 34.3338H46.7504L39.9828 25.4369C39.5141 24.8395 39.2508 24.0294 39.2508 23.1848C39.2508 22.3401 39.5141 21.53 39.9828 20.9327Z" fill="white"/>
</svg>
