<svg width="204" height="206" viewBox="0 0 204 206" fill="none" xmlns="http://www.w3.org/2000/svg">
<g filter="url(#filter0_d_2015_63)">
<circle cx="102" cy="100" r="100" fill="url(#paint0_linear_2015_63)"/>
</g>
<g filter="url(#filter1_d_2015_63)">
<rect x="46.8271" y="79.646" width="8.69913" height="7.59883" fill="#0068B5"/>
<path d="M156.856 79.646H148.14V119.56H156.856V79.646Z" fill="black"/>
<path d="M95.4866 81.7078H104.202V92.3168H109.649V98.4939H104.202L104.202 109.66C104.202 113.145 107.621 113.33 109.558 112.987V119.718C98.0116 119.718 95.4872 116.63 95.4866 108V81.7078Z" fill="black"/>
<path d="M68.7965 95.5518C70.6765 93.7277 73.9885 91.6834 78.601 91.6834C86.4083 91.6834 91.0383 97.5437 91.0383 102.533V119.56H82.6863V103.958C82.6257 101.952 81.1611 97.9397 75.7868 97.9397C72.0744 97.9397 69.9099 100.081 68.7965 102.145V119.559H60.0814V92.3168H68.7965V95.5518Z" fill="black"/>
<path d="M46.8271 92.3168H55.5423V119.559H46.8271V92.3168Z" fill="black"/>
<path fill-rule="evenodd" clip-rule="evenodd" d="M119.565 108.472H144.509V105.938C144.509 98.0654 137.193 91.6834 128.168 91.6834C119.144 91.6834 111.827 98.0655 111.827 105.938C111.827 113.811 119.144 120.193 128.168 120.193C133.464 120.193 138.172 117.992 141.152 114.595L135.384 110.745C133.719 112.643 131.107 113.858 128.168 113.858C124.17 113.858 120.776 111.603 119.565 108.472ZM136.708 103.245C135.445 100.197 132.098 98.0189 128.168 98.0189C124.238 98.0189 120.892 100.197 119.628 103.245H136.708Z" fill="black"/>
</g>
<defs>
<filter id="filter0_d_2015_63" x="0" y="0" width="204" height="206" filterUnits="userSpaceOnUse" color-interpolation-filters="sRGB">
<feFlood flood-opacity="0" result="BackgroundImageFix"/>
<feColorMatrix in="SourceAlpha" type="matrix" values="0 0 0 0 0 0 0 0 0 0 0 0 0 0 0 0 0 0 127 0" result="hardAlpha"/>
<feMorphology radius="2" operator="erode" in="SourceAlpha" result="effect1_dropShadow_2015_63"/>
<feOffset dy="4"/>
<feGaussianBlur stdDeviation="2"/>
<feComposite in2="hardAlpha" operator="out"/>
<feColorMatrix type="matrix" values="0 0 0 0 0 0 0 0 0 0 0 0 0 0 0 0 0 0 0.27 0"/>
<feBlend mode="normal" in2="BackgroundImageFix" result="effect1_dropShadow_2015_63"/>
<feBlend mode="normal" in="SourceGraphic" in2="effect1_dropShadow_2015_63" result="shape"/>
</filter>
<filter id="filter1_d_2015_63" x="42.8271" y="79.646" width="118.028" height="48.5471" filterUnits="userSpaceOnUse" color-interpolation-filters="sRGB">
<feFlood flood-opacity="0" result="BackgroundImageFix"/>
<feColorMatrix in="SourceAlpha" type="matrix" values="0 0 0 0 0 0 0 0 0 0 0 0 0 0 0 0 0 0 127 0" result="hardAlpha"/>
<feOffset dy="4"/>
<feGaussianBlur stdDeviation="2"/>
<feComposite in2="hardAlpha" operator="out"/>
<feColorMatrix type="matrix" values="0 0 0 0 0 0 0 0 0 0 0 0 0 0 0 0 0 0 0.3 0"/>
<feBlend mode="normal" in2="BackgroundImageFix" result="effect1_dropShadow_2015_63"/>
<feBlend mode="normal" in="SourceGraphic" in2="effect1_dropShadow_2015_63" result="shape"/>
</filter>
<linearGradient id="paint0_linear_2015_63" x1="2" y1="-64.7059" x2="102" y2="200" gradientUnits="userSpaceOnUse">
<stop stop-color="white"/>
<stop offset="1" stop-color="#7B2EA8"/>
</linearGradient>
</defs>
</svg>
