<svg width="50" height="55" viewBox="0 0 50 55" fill="none" xmlns="http://www.w3.org/2000/svg">
<path d="M44 0.918945C47.3137 0.918945 50 3.60524 50 6.91895V48.0391C49.9998 51.3526 47.3136 54.0391 44 54.0391H0V0.918945H44Z" fill="white"/>
<path d="M44 0.918945C47.3137 0.918945 50 3.60524 50 6.91895V48.0391C49.9998 51.3526 47.3136 54.0391 44 54.0391H0V0.918945H44Z" stroke="#D6D6D6"/>
<path fill-rule="evenodd" clip-rule="evenodd" d="M27.2335 34.9155L32.8898 28.9964C33.4106 28.4511 33.4106 27.5672 32.8898 27.0236L27.2335 21.1044L25.3479 23.0784L28.7279 26.6147H18V29.4048H28.7279L25.3479 32.9423L27.2335 34.9155Z" fill="#292F43"/>
</svg>
