<svg width="91" height="94" viewBox="0 0 91 94" fill="none" xmlns="http://www.w3.org/2000/svg">
<ellipse cx="45.5" cy="47" rx="45.5" ry="47" fill="#B70AC1"/>
<path d="M35 31C36.3261 31 37.5979 31.5268 38.5355 32.4645C39.4732 33.4021 40 34.6739 40 36C40 37.3261 39.4732 38.5979 38.5355 39.5355C37.5979 40.4732 36.3261 41 35 41C33.6739 41 32.4021 40.4732 31.4645 39.5355C30.5268 38.5979 30 37.3261 30 36C30 34.6739 30.5268 33.4021 31.4645 32.4645C32.4021 31.5268 33.6739 31 35 31ZM58 31C59.3261 31 60.5979 31.5268 61.5355 32.4645C62.4732 33.4021 63 34.6739 63 36C63 37.3261 62.4732 38.5979 61.5355 39.5355C60.5979 40.4732 59.3261 41 58 41C56.6739 41 55.4021 40.4732 54.4645 39.5355C53.5268 38.5979 53 37.3261 53 36C53 34.6739 53.5268 33.4021 54.4645 32.4645C55.4021 31.5268 56.6739 31 58 31ZM26 49.6688C26 45.9875 28.9875 43 32.6687 43H35.3375C36.3312 43 37.275 43.2187 38.125 43.6062C38.0438 44.0562 38.0063 44.525 38.0063 45C38.0063 47.3875 39.0562 49.5312 40.7125 51H27.3312C26.6 51 26 50.4 26 49.6688ZM51.3312 51H51.2875C52.95 49.5312 53.9937 47.3875 53.9937 45C53.9937 44.525 53.95 44.0625 53.875 43.6062C54.725 43.2125 55.6688 43 56.6625 43H59.3312C63.0125 43 66 45.9875 66 49.6688C66 50.4063 65.4 51 64.6688 51H51.3375H51.3312ZM40 45C40 43.4087 40.6321 41.8826 41.7574 40.7574C42.8826 39.6321 44.4087 39 46 39C47.5913 39 49.1174 39.6321 50.2426 40.7574C51.3679 41.8826 52 43.4087 52 45C52 46.5913 51.3679 48.1174 50.2426 49.2426C49.1174 50.3679 47.5913 51 46 51C44.4087 51 42.8826 50.3679 41.7574 49.2426C40.6321 48.1174 40 46.5913 40 45ZM34 61.3312C34 56.7312 37.7312 53 42.3312 53H49.6625C54.2688 53 58 56.7312 58 61.3312C58 62.25 57.2562 63 56.3312 63H35.6625C34.7438 63 33.9938 62.2562 33.9938 61.3312H34Z" fill="white"/>
</svg>
