<svg width="161" height="161" viewBox="0 0 161 161" fill="none" xmlns="http://www.w3.org/2000/svg">
<g filter="url(#filter0_d_2215_68)">
<circle cx="80.7719" cy="80.73" r="36.5" transform="rotate(-179.612 80.7719 80.73)" stroke="url(#paint0_linear_2215_68)" stroke-width="7" shape-rendering="crispEdges"/>
</g>
<path fill-rule="evenodd" clip-rule="evenodd" d="M68.9883 92.3097C75.3893 98.9247 85.9403 99.0981 92.5553 92.697C99.1703 86.2959 99.3437 75.7449 92.9426 69.13C86.5415 62.515 75.9906 62.3416 69.3756 68.7426C62.7606 75.1437 62.5872 85.6947 68.9883 92.3097ZM85.8771 85.8052C85.8843 85.3633 85.7157 84.9366 85.4083 84.6191C85.101 84.3015 84.6801 84.1189 84.2383 84.1116L79.929 84.042L87.2063 77C87.524 76.6926 87.7065 76.2716 87.7138 75.8296C87.721 75.3877 87.5524 74.9609 87.2451 74.6433C86.9377 74.3256 86.5167 74.1431 86.0747 74.1358C85.6328 74.1285 85.206 74.2971 84.8884 74.6045L77.611 81.6465L77.6819 77.3361C77.689 76.8941 77.5202 76.4673 77.2126 76.1497C76.9051 75.8321 76.4839 75.6496 76.0419 75.6425C75.5998 75.6354 75.173 75.8042 74.8554 76.1118C74.5378 76.4193 74.3554 76.8404 74.3483 77.2825L74.2125 85.6147C74.2053 86.0565 74.3739 86.4832 74.6813 86.8008C74.9886 87.1184 75.4095 87.3009 75.8513 87.3082L84.1811 87.4463C84.4001 87.45 84.6177 87.4105 84.8214 87.3301C85.0251 87.2497 85.211 87.1299 85.3684 86.9776C85.5258 86.8253 85.6516 86.6434 85.7387 86.4425C85.8258 86.2415 85.8724 86.0253 85.8759 85.8063L85.8771 85.8052Z" fill="#F0F0F0"/>
<defs>
<filter id="filter0_d_2215_68" x="36.7715" y="40.73" width="88" height="88" filterUnits="userSpaceOnUse" color-interpolation-filters="sRGB">
<feFlood flood-opacity="0" result="BackgroundImageFix"/>
<feColorMatrix in="SourceAlpha" type="matrix" values="0 0 0 0 0 0 0 0 0 0 0 0 0 0 0 0 0 0 127 0" result="hardAlpha"/>
<feOffset dy="4"/>
<feGaussianBlur stdDeviation="2"/>
<feComposite in2="hardAlpha" operator="out"/>
<feColorMatrix type="matrix" values="0 0 0 0 0 0 0 0 0 0 0 0 0 0 0 0 0 0 0.25 0"/>
<feBlend mode="normal" in2="BackgroundImageFix" result="effect1_dropShadow_2215_68"/>
<feBlend mode="normal" in="SourceGraphic" in2="effect1_dropShadow_2215_68" result="shape"/>
</filter>
<linearGradient id="paint0_linear_2215_68" x1="80.7719" y1="52.4443" x2="80.7719" y2="123.587" gradientUnits="userSpaceOnUse">
<stop stop-color="#B70AC1"/>
<stop offset="0.479448" stop-color="#B70AC1"/>
<stop offset="0.9375" stop-color="#292F43"/>
</linearGradient>
</defs>
</svg>
