<svg width="75" height="74" viewBox="0 0 75 74" fill="none" xmlns="http://www.w3.org/2000/svg">
<circle cx="37.5" cy="37" r="37" fill="#B70AC1"/>
<path d="M22.0171 38.4763C23.0629 33.5247 23.5867 31.0526 25.3141 29.4574C25.6334 29.1634 25.9787 28.896 26.3463 28.6579C28.3386 27.3684 31.0066 27.3684 36.3426 27.3684H39.6592C44.9933 27.3684 47.6594 27.3684 49.6497 28.6579C50.0197 28.8986 50.3637 29.1657 50.6818 29.4592C52.4092 31.0526 52.935 33.5266 53.9808 38.4763C55.4823 45.5795 56.234 49.131 54.5047 51.6474C54.1918 52.1054 53.8283 52.5248 53.4141 52.9055C51.1434 55 47.3166 55 39.6592 55H36.3426C28.6833 55 24.8545 55 22.5838 52.9037C22.173 52.5236 21.8079 52.1016 21.4952 51.6455C19.7658 49.1292 20.5175 45.5776 22.021 38.4745L22.0171 38.4763Z" stroke="white" stroke-width="1.5"/>
<path opacity="0.5" d="M32.1543 27.3684V25.5263C32.1543 24.0606 32.7698 22.655 33.8655 21.6186C34.9612 20.5822 36.4472 20 37.9967 20C39.5462 20 41.0322 20.5822 42.1279 21.6186C43.2236 22.655 43.8391 24.0606 43.8391 25.5263V27.3684M32.4854 43.9474C32.8877 45.026 33.6339 45.96 34.621 46.6207C35.608 47.2813 36.7875 47.6361 37.9967 47.6361C39.2059 47.6361 40.3853 47.2813 41.3724 46.6207C42.3595 45.96 43.1057 45.026 43.508 43.9474" stroke="white" stroke-width="1.5" stroke-linecap="round"/>
</svg>
