<svg width="75" height="74" viewBox="0 0 75 74" fill="none" xmlns="http://www.w3.org/2000/svg">
<circle cx="37.5" cy="37" r="37" fill="#292F43"/>
<path d="M25.334 45.25C24.5319 45.25 23.8455 44.9647 23.2748 44.394C22.7041 43.8233 22.4183 43.1364 22.4173 42.3333V26.2917C22.4173 25.4896 22.7032 24.8032 23.2748 24.2325C23.8465 23.6618 24.5329 23.376 25.334 23.375H48.6673C49.4694 23.375 50.1563 23.6608 50.7279 24.2325C51.2996 24.8042 51.585 25.4906 51.584 26.2917V42.3333C51.584 43.1354 51.2986 43.8223 50.7279 44.394C50.1572 44.9656 49.4704 45.251 48.6673 45.25H25.334ZM20.959 49.625V46.7083H53.0423V49.625H20.959Z" fill="white"/>
</svg>
