<svg width="41" height="41" viewBox="0 0 41 41" fill="none" xmlns="http://www.w3.org/2000/svg">
<circle cx="20.5" cy="20.5" r="20.5" fill="#111111" fill-opacity="0.31"/>
<path d="M16.9356 27.3552V13.8479C16.934 13.6077 17.0114 13.3725 17.1577 13.1724C17.3041 12.9722 17.5129 12.8161 17.7574 12.724C18.0019 12.6319 18.2711 12.608 18.5307 12.6552C18.7903 12.7025 19.0286 12.8188 19.215 12.9893L26.6532 19.749C26.9014 19.9756 27.0408 20.2821 27.0408 20.6016C27.0408 20.921 26.9014 21.2275 26.6532 21.4541L19.215 28.2138C19.0286 28.3844 18.7903 28.5007 18.5307 28.5479C18.2711 28.5952 18.0019 28.5712 17.7574 28.4791C17.5129 28.387 17.3041 28.2309 17.1577 28.0308C17.0114 27.8306 16.934 27.5954 16.9356 27.3552Z" fill="white"/>
</svg>
