<svg width="89" height="90" viewBox="0 0 89 90" fill="none" xmlns="http://www.w3.org/2000/svg">
<g filter="url(#filter0_d_278_36)">
<circle cx="40" cy="40" r="36.5" transform="matrix(-0.999687 -0.0250316 0.0255671 -0.999673 83.5 82)" stroke="url(#paint0_linear_278_36)" stroke-width="7" shape-rendering="crispEdges"/>
</g>
<path d="M62.4998 40.5106C62.5025 39.2597 62.175 38.028 61.5472 36.9279C60.9194 35.8277 60.0113 34.8941 58.9056 34.2121C57.7999 33.53 56.5318 33.1213 55.2168 33.0231C53.9019 32.9249 52.582 33.1404 51.3774 33.65C50.1728 34.1595 49.1218 34.9469 48.3202 35.9403C47.5187 36.9337 46.992 38.1016 46.7882 39.3375C46.5845 40.5735 46.7101 41.8381 47.1537 43.0161C47.5972 44.1942 48.3446 45.2483 49.3278 46.0822V58L54.5966 55.6464L59.8654 58V46.0822C60.6935 45.3819 61.3562 44.5235 61.8102 43.5633C62.2642 42.6032 62.4992 41.5629 62.4998 40.5106ZM57.231 54.0624L54.5966 52.8856L51.9622 54.0624V47.5688C53.6649 48.1507 55.5283 48.1507 57.231 47.5688V54.0624ZM54.5966 45.5076C53.5545 45.5076 52.5358 45.2145 51.6694 44.6654C50.8029 44.1164 50.1276 43.3359 49.7288 42.4229C49.33 41.5098 49.2257 40.5051 49.429 39.5357C49.6323 38.5664 50.1341 37.6761 50.871 36.9772C51.6078 36.2784 52.5466 35.8025 53.5687 35.6096C54.5907 35.4168 55.6501 35.5158 56.6129 35.894C57.5756 36.2722 58.3985 36.9127 58.9774 37.7344C59.5564 38.5562 59.8654 39.5223 59.8654 40.5106C59.8636 41.8354 59.308 43.1054 58.3203 44.0422C57.3325 44.9789 55.9934 45.5059 54.5966 45.5076Z" fill="#F0F0F0"/>
<path d="M41.0086 24C38.8597 24.0023 36.7996 24.7932 35.2801 26.1993C33.7607 27.6053 32.9059 29.5116 32.9034 31.5V39H30.2017C29.4852 39 28.798 39.2634 28.2913 39.7322C27.7846 40.2011 27.5 40.837 27.5 41.5V56.5C27.5 57.163 27.7846 57.7989 28.2913 58.2678C28.798 58.7366 29.4852 59 30.2017 59H45.0611V56.5H30.2017V41.5H42.3594V39H35.6051V31.5C35.6038 30.26 36.1004 29.0639 36.9986 28.1437C37.8967 27.2235 39.1323 26.6449 40.4655 26.5203C41.7987 26.3957 43.1344 26.7339 44.2133 27.4693C45.2922 28.2047 46.0373 29.2848 46.3039 30.5L48.9516 30C48.5732 28.3081 47.5772 26.7882 46.1308 25.6957C44.6844 24.6031 42.8757 24.0043 41.0086 24Z" fill="#F0F0F0"/>
<defs>
<filter id="filter0_d_278_36" x="0.53418" y="1.01221" width="88.002" height="87.9993" filterUnits="userSpaceOnUse" color-interpolation-filters="sRGB">
<feFlood flood-opacity="0" result="BackgroundImageFix"/>
<feColorMatrix in="SourceAlpha" type="matrix" values="0 0 0 0 0 0 0 0 0 0 0 0 0 0 0 0 0 0 127 0" result="hardAlpha"/>
<feOffset dy="4"/>
<feGaussianBlur stdDeviation="2"/>
<feComposite in2="hardAlpha" operator="out"/>
<feColorMatrix type="matrix" values="0 0 0 0 0 0 0 0 0 0 0 0 0 0 0 0 0 0 0.25 0"/>
<feBlend mode="normal" in2="BackgroundImageFix" result="effect1_dropShadow_278_36"/>
<feBlend mode="normal" in="SourceGraphic" in2="effect1_dropShadow_278_36" result="shape"/>
</filter>
<linearGradient id="paint0_linear_278_36" x1="40" y1="11.7143" x2="40" y2="82.8571" gradientUnits="userSpaceOnUse">
<stop stop-color="#B70AC1"/>
<stop offset="0.479448" stop-color="#B70AC1"/>
<stop offset="0.9375" stop-color="#292F43"/>
</linearGradient>
</defs>
</svg>
