<svg width="9" height="9" viewBox="0 0 9 9" fill="none" xmlns="http://www.w3.org/2000/svg">
<path d="M4.5 0C6.98589 0 9 2.01411 9 4.5C9 6.98589 6.98589 9 4.5 9C2.01411 9 0 6.98589 0 4.5C0 2.01411 2.01411 0 4.5 0ZM3.9756 2.60565L5.34556 3.91935H2.03226C1.79093 3.91935 1.59677 4.11351 1.59677 4.35484V4.64516C1.59677 4.88649 1.79093 5.08065 2.03226 5.08065H5.34556L3.9756 6.39435C3.7996 6.5631 3.79597 6.84435 3.96835 7.01673L4.16794 7.21452C4.33851 7.38508 4.61431 7.38508 4.78306 7.21452L7.19093 4.80847C7.36149 4.6379 7.36149 4.3621 7.19093 4.19335L4.78306 1.78367C4.6125 1.6131 4.33669 1.6131 4.16794 1.78367L3.96835 1.98145C3.79597 2.15565 3.7996 2.4369 3.9756 2.60565Z" fill="#292F43"/>
</svg>
